<?xml version="1.0" encoding="UTF-8" standalone="no"?>
<!DOCTYPE svg PUBLIC "-//W3C//DTD SVG 1.1//EN" "http://www.w3.org/Graphics/SVG/1.1/DTD/svg11.dtd">
<svg width="100%" height="100%" viewBox="0 0 512 512" version="1.1" xmlns="http://www.w3.org/2000/svg" xmlns:xlink="http://www.w3.org/1999/xlink" xml:space="preserve" xmlns:serif="http://www.serif.com/" style="fill-rule:evenodd;clip-rule:evenodd;stroke-linejoin:round;stroke-miterlimit:2;">
    <g>
        <path d="M340.346,258.395C339.026,257.075 339.026,254.926 340.346,253.606L501.529,92.344C515.311,78.556 515.311,56.12 501.529,42.332L469.575,10.362C462.897,3.679 454.017,-0 444.571,-0C435.125,-0 426.244,3.679 419.565,10.361L258.382,171.625C257.567,172.441 256.636,172.613 256,172.613C255.365,172.613 254.434,172.442 253.619,171.625L92.435,10.361C85.756,3.679 76.876,-0 67.429,-0C57.982,-0 49.103,3.679 42.425,10.361L10.471,42.332C-3.311,56.12 -3.311,78.556 10.471,92.344L171.654,253.606C172.974,254.926 172.974,257.075 171.654,258.395L10.471,419.657C-3.31,433.446 -3.31,455.881 10.471,469.669L42.425,501.639C49.103,508.321 57.983,512 67.429,512C76.875,512 85.756,508.321 92.435,501.639L253.618,340.377C254.433,339.56 255.363,339.389 256,339.389C256.636,339.389 257.565,339.56 258.381,340.378L419.564,501.64C426.243,508.322 435.123,512.001 444.57,512.001C454.017,512.001 462.896,508.322 469.574,501.64L501.528,469.67C515.309,455.883 515.309,433.447 501.528,419.658L340.346,258.395Z" style="fill:rgb(0,51,153);fill-rule:nonzero;"/>
    </g>
</svg>
