<?xml version="1.0" encoding="UTF-8" standalone="no"?>
<!DOCTYPE svg PUBLIC "-//W3C//DTD SVG 1.1//EN" "http://www.w3.org/Graphics/SVG/1.1/DTD/svg11.dtd">
<svg width="100%" height="100%" viewBox="0 0 512 512" version="1.1" xmlns="http://www.w3.org/2000/svg" xmlns:xlink="http://www.w3.org/1999/xlink" xml:space="preserve" xmlns:serif="http://www.serif.com/" style="fill-rule:evenodd;clip-rule:evenodd;stroke-linejoin:round;stroke-miterlimit:2;">
    <g transform="matrix(1,0,0,1,81.0124,0)">
        <g>
            <path d="M191.84,29.442C183.284,27.923 174.47,29.153 166.655,32.957C156.572,26.673 143.524,27.93 134.827,36.026L106.87,62.203L106.87,59.922C106.87,36.366 87.773,17.269 64.212,17.269C50.079,17.269 38.621,28.727 38.621,42.86L38.621,126.417L17.736,149.068C11.804,155.473 8.574,163.92 8.711,172.648C8.543,202.387 10.737,232.098 15.279,261.489C15.463,262.161 15.732,262.805 16.08,263.41L2.158,302.576C-3.138,317.155 2.193,333.467 15.072,342.109L19.946,345.421C14.971,359.921 20.259,375.96 32.876,384.665L171.006,479.36C173.333,480.953 174.72,483.589 174.72,486.405C174.72,500.542 186.178,512 200.311,512L324.295,512C332.079,512.02 339.444,508.47 344.275,502.37C349.203,496.168 350.992,488.037 349.121,480.34L336.667,434.274C332.285,414.142 330.997,393.46 332.844,372.941C339.873,283.784 280.103,219.378 264.943,208.186C237.056,187.629 216.256,166.196 207.86,149.38C195.277,124.148 203.759,106.887 211.956,90.2C218.834,76.2 225.949,61.731 215.854,46.555C210.519,37.815 201.846,31.633 191.84,29.442ZM64.212,34.331C78.349,34.331 89.807,45.789 89.807,59.922L89.807,78.18L55.683,110.121L55.683,42.86C55.683,40.599 56.581,38.428 58.183,36.831C59.78,35.229 61.951,34.331 64.212,34.331ZM25.773,172.418C25.702,168.055 27.319,163.834 30.283,160.635L52.797,136.177C53.004,136.001 53.196,135.817 53.379,135.622L103.476,88.743C103.96,88.376 104.401,87.958 104.796,87.498L146.703,48.253C150.042,45.004 155.365,45.004 158.704,48.253L159.286,47.672C159.493,47.914 159.716,48.136 159.95,48.347L159.411,49.038C168.678,59.079 168.42,74.626 158.833,84.358L125.279,116.572L78.033,159.124C74.964,162.393 73.351,166.763 73.554,171.238C57.679,173.304 44.295,184.086 38.902,199.161L28.194,229.278C26.48,208.307 25.933,184.563 25.773,172.418ZM90.542,170.828L115.196,148.646C114.871,156.051 115.141,163.471 116.008,170.828L90.542,170.828ZM18.204,308.395L54.992,204.878C58.675,194.646 68.403,187.839 79.279,187.89L152.487,187.89C154.256,187.902 155.982,188.456 157.423,189.48L201.584,220.773C203.31,221.968 204.357,223.924 204.388,226.025C204.404,227.224 204.091,228.403 203.486,229.438C203.185,229.934 202.795,230.426 202.435,230.915L188.579,221.003C181.37,215.825 172.716,213.044 163.84,213.052L96.7,213.052C78.638,213.079 62.553,224.483 56.542,241.517L25.831,328.792L24.722,328.042C18.271,323.786 15.576,315.663 18.204,308.395ZM196.679,82.788C188.06,100.311 176.27,124.316 192.633,157.113C205.712,183.329 237.227,209.041 254.852,222.014C266.181,230.352 322.315,289.9 315.868,371.703C313.876,394.057 315.313,416.587 320.132,438.503L332.586,484.573C333.168,487.1 332.567,489.756 330.954,491.79C329.341,493.821 326.888,495.008 324.295,495.016L200.268,495.016C195.558,495.016 191.739,491.193 191.739,486.483C191.751,478.044 187.599,470.143 180.648,465.359L42.526,370.665C36.161,366.283 33.521,358.179 36.087,350.888L72.624,247.149C76.233,236.948 85.863,230.118 96.685,230.087L163.824,230.087C169.147,230.083 174.337,231.75 178.66,234.855L218.049,263.051C220.817,265.066 221.591,268.854 219.841,271.795C216.264,277.793 210.383,282.054 203.576,283.593C196.765,285.127 189.622,283.8 183.819,279.918L166.757,268.53C162.563,265.707 157.619,264.203 152.561,264.211L126.287,264.211C115.18,264.144 105.319,271.311 101.957,281.898C101.453,283.491 100.734,285.471 99.926,287.697C93.783,304.673 79.451,344.398 111.97,357.441C114.825,358.711 118.144,358.316 120.624,356.418C123.104,354.52 124.346,351.419 123.865,348.334C123.385,345.245 121.257,342.672 118.32,341.613C104.011,335.873 107.03,318.221 115.973,293.508C116.875,291.017 117.679,288.826 118.226,287.049C119.363,283.569 122.627,281.23 126.287,281.273L152.553,281.273C154.229,281.273 155.865,281.773 157.255,282.706L174.317,294.106C184.01,300.577 195.933,302.791 207.301,300.229C218.67,297.667 228.491,290.552 234.47,280.55C240.726,269.975 237.899,256.373 227.945,249.172L216.283,240.783C216.904,239.932 217.58,239.08 218.107,238.225C224.442,227.658 221.544,213.997 211.472,206.909L167.323,175.565C162.984,172.496 157.802,170.84 152.487,170.828L133.195,170.828C131.422,157.617 131.852,144.198 134.46,131.123L170.81,96.558C183.952,83.354 187.006,63.148 178.352,46.648C187.396,43.801 197.183,47.777 201.686,56.119C205.915,62.484 203.544,68.815 196.679,82.788Z" style="fill:rgb(0,51,153);fill-rule:nonzero;"/>
            <path d="M160.411,358.515C157.517,357.551 154.326,358.203 152.042,360.226C149.757,362.249 148.726,365.338 149.335,368.329C149.949,371.321 152.108,373.758 155.002,374.726C174.692,381.326 225.812,405.004 225.812,434.879C225.812,439.589 229.632,443.408 234.341,443.408C239.055,443.408 242.874,439.589 242.874,434.879C242.847,386.582 163.781,359.617 160.411,358.515Z" style="fill:rgb(0,51,153);fill-rule:nonzero;"/>
            <path d="M218.041,327.293C216.194,324.864 213.194,323.606 210.172,323.993C207.145,324.379 204.556,326.348 203.38,329.159C202.201,331.971 202.611,335.197 204.458,337.622C217.475,354.684 239.129,375.109 268.364,375.109C273.078,375.109 276.897,371.289 276.897,366.576C276.897,361.866 273.078,358.047 268.364,358.047C246.116,358.047 228.745,341.316 218.041,327.293Z" style="fill:rgb(0,51,153);fill-rule:nonzero;"/>
            <path d="M223.875,2.859L215.745,11.392C213.522,13.575 212.667,16.797 213.515,19.792C214.362,22.791 216.779,25.091 219.814,25.786C222.852,26.486 226.027,25.474 228.097,23.147L236.228,14.614C238.45,12.43 239.305,9.209 238.458,6.209C237.61,3.214 235.193,0.914 232.158,0.219C229.12,-0.48 225.945,0.531 223.875,2.859Z" style="fill:rgb(0,51,153);fill-rule:nonzero;"/>
            <path d="M264.26,41.154C263.65,38.975 262.198,37.127 260.222,36.018C258.249,34.909 255.914,34.628 253.735,35.241L242.644,38.365C238.504,39.49 235.841,43.512 236.427,47.765C237.013,52.014 240.664,55.166 244.956,55.131C245.741,55.131 246.522,55.021 247.276,54.807L258.367,51.69C260.546,51.077 262.393,49.62 263.498,47.644C264.603,45.668 264.877,43.333 264.26,41.154Z" style="fill:rgb(0,51,153);fill-rule:nonzero;"/>
            <path d="M240.492,75.852C235.954,74.579 231.245,77.223 229.971,81.761C228.694,86.299 231.342,91.008 235.876,92.281L246.967,95.406C247.725,95.617 248.506,95.726 249.291,95.722C253.551,95.718 257.16,92.57 257.738,88.349C258.316,84.123 255.688,80.124 251.583,78.972L240.492,75.852Z" style="fill:rgb(0,51,153);fill-rule:nonzero;"/>
        </g>
    </g>
</svg>
