<?xml version="1.0"?>
<svg xmlns="http://www.w3.org/2000/svg" xmlns:xlink="http://www.w3.org/1999/xlink" xmlns:svgjs="http://svgjs.com/svgjs" version="1.1" width="512px" height="512px" x="0" y="0" viewBox="0 0 511.957 511.957" style="enable-background:new 0 0 512 512" xml:space="preserve" class=""><g><path d="m325.104 187.274c0 28.923 23.531 52.454 52.455 52.454 28.923 0 52.454-23.531 52.454-52.454 0-28.924-23.531-52.455-52.454-52.455-28.924 0-52.455 23.531-52.455 52.455zm89.909 0c0 20.652-16.802 37.454-37.454 37.454s-37.455-16.802-37.455-37.454 16.803-37.455 37.455-37.455 37.454 16.803 37.454 37.455z" fill="#003399" data-original="#000000"/><path d="m123.391 64.187c-2.548-6.563-7.977-10.772-15.338-11.872-14.12-2.116-32.989 7.9-38.822 15.68-4.179 5.571-4.898 12.916-1.973 20.15 3.599 8.899 12.08 15.636 21.606 17.16 8.406 1.345 11.779 16.129 31.094 6.136 5.509-2.85 14.085-10.549 9.621-30.097-1.857-8.132-5.282-15.333-6.188-17.157zm-10.324 33.931c-3.78 1.956-4.992 1.741-5.003 1.735-.352-.072-1.653-1.246-2.354-1.876-2.776-2.502-6.973-6.283-14.476-7.484-5.057-.809-8.702-4.586-10.07-7.971-.43-1.063-1.283-3.728.066-5.527 4.264-5.686 25.568-14.602 28.228-7.242.362 1 3.743 7.249 5.498 14.931 1.161 5.082 1.775 11.538-1.889 13.434z" fill="#003399" data-original="#000000"/><path d="m28.728 206.031c-10.03 13.374 1.257 34.37 19.635 37.311 8.405 1.342 11.775 16.127 31.093 6.136 5.51-2.85 14.086-10.549 9.622-30.098-1.857-8.133-5.282-15.333-6.188-17.157-8.865-22.834-44.918-8.521-54.162 3.808zm40.622 2.656c.034.065 3.444 6.765 5.104 14.032 1.16 5.082 1.774 11.539-1.89 13.434-3.789 1.961-4.99 1.74-5.004 1.735-.352-.072-1.653-1.245-2.353-1.876-2.777-2.502-6.974-6.283-14.477-7.483-5.057-.809-8.701-4.586-10.069-7.97-.431-1.063-1.284-3.729.065-5.528 2.93-3.906 16.458-11.066 24.606-9.846 3.398.509 3.333 2.177 4.018 3.502z" fill="#003399" data-original="#000000"/><path d="m145.988 158.688c-4.31-8.022-15.046-10.551-17.717-11.064-12.45-2.957-19.249 3.138-22.203 7.046-8.746 11.57-6.354 32.507.877 45.27 2.765 4.879 1.845 7.263-1.481 14.063-2.921 5.972-6.921 14.149-5.617 25.754.534 4.756-10.632 12.002-17.303 16.331-9.673 6.276-18.027 11.697-16.958 20.287 1.027 8.249 10.548 11.487 14.133 12.707 18.161 6.176 38.295 2.849 53.865-8.91 10.449-7.892 16.411-18.041 15.948-27.15-.214-4.201 7.124-18.756-5.749-32.308-6.614-6.962-2.152-17.538 2.756-25.184 5.454-8.497 2.144-14.789.365-18.169-1.315-2.5-1.553-2.95-.606-5.156 2.549-5.949 1.239-10.634-.31-13.517zm-11.437 95.094c.161 3.183-2.901 9.053-10.008 14.419-4.344 3.282-20.065 13.459-39.995 6.68-.73-.249-1.358-.482-1.896-.699 2.274-1.759 5.58-3.903 8.057-5.511 11.411-7.405 25.612-16.621 24.044-30.588-.816-7.265 1.613-12.231 4.186-17.489 3.498-7.153 7.854-16.057 1.058-28.049-5.137-9.064-6.108-23.345-1.962-28.83 1.936-2.561 4.494-1.886 7.326-1.376 2.874.522 6.608 2.234 7.353 3.346-.39 2.082-4.772 7.85.917 18.661.336.64.788 1.499.898 1.881-.454 1.573-19.288 26.221-1.62 44.819 7.048 7.419 1.222 14.458 1.642 22.736z" fill="#003399" data-original="#000000"/><path d="m504.457 202.845c-4.143 0-7.5 3.357-7.5 7.5v137.459c0 5.371-5.488 8.95-10.412 6.792-4.243-1.859-8.896-4.231-13.827-7.05-19.372-11.07-35.642-2.326-48.716 4.697-7.146 3.841-13.897 7.483-19.671 7.134-16.153-.966-19.727 15.896-22.579 29.42-.88 4.169-1.789 8.48-2.98 12.647-1.367 4.78 2.223 9.563 7.215 9.563 3.263 0 6.266-2.146 7.207-5.44 1.337-4.676 2.302-9.25 3.235-13.674 1.265-5.996 2.46-11.659 4.171-15.097 1.262-2.536 1.933-2.496 2.865-2.445 9.998.581 18.967-4.237 27.637-8.895 11.816-6.35 22.021-11.832 34.175-4.888 5.39 3.08 10.52 5.692 15.247 7.765 14.815 6.495 31.434-4.357 31.434-20.53v-137.458c-.001-4.142-3.359-7.5-7.501-7.5z" fill="#003399" data-original="#000000"/><path d="m489.538 3.601h-33.2c-13.616 0-24.12 12.029-22.219 25.372 1.938 13.615-13.811 25.339-25.31 33.898-1.474 1.097-2.88 2.144-4.182 3.142-12.396 9.504-12.282 21.981-12.199 31.093.015 1.664.025 3.343-.051 4.861-9.471-1.622-18.788-1.663-28.191-.232-1.838-1.411-2.72-2.398-3.114-2.935 1.015-1.305 3.784-3.463 5.699-4.955 5.028-3.918 11.286-8.793 13.992-16.101 5.872-15.854-10.228-29.099-21.336-34.811-4.839-3.98-24.212-16.176-67.861-2.471-21.105 6.626-39.147 21.939-52.175 44.285-10.947 18.777-15.152 36.865-15.847 43.806-.407 4.071-8.355 12.577-14.742 19.411-10.505 11.241-21.367 22.866-23.006 35.406-.775 5.929.235 10.441 3.09 13.796 4.276 5.027 10.693 5.227 16.354 5.402 11.313.35 11.766 1.827 15.86 6.996 10.51 13.264 22.434 28.318 41.818 22.147 5.533-1.761 12.307-6.073 13.154-16.618.873-10.867-4.721-25.153-6.554-43.495-1.384-13.831 2.452-17.215 7.762-21.897 3.793-3.345 8.513-7.508 10.399-15.055 1.883-7.531 6.926-13.495 10.275-14.138 2.535-.482 5.291 2.739 6.705 4.705 2.32 3.221 2.528 7.613.656 14.138-19.191 28.947-19.196 67.238.411 96.316-12.624 1.99-18.942 7.542-24.033 12.04-5.934 5.238-9.52 8.401-24.29 5.488-19.384-3.823-28.997.364-38.297 4.412-7.608 3.312-15.477 6.736-31.147 6.736-22.883 0-33.782 13.153-43.397 24.758-7.859 9.485-15.283 18.444-29.347 21.257-14.354 2.871-23.008 8.092-26.454 15.96-4.628 10.564 1.851 21.185 6.581 28.938.775 1.271 1.508 2.472 2.104 3.533 1.69 3.005 2.226 11.766-2.779 17.8-5.757 6.943-17.635 7.82-33.442 2.469-20.51-6.94-29.727-7.902-36.534-3.808-6.753 4.062-7.952 11.436-9.341 19.975-1.007 6.188-2.26 13.891-5.823 22.705-14.386 35.586-11.08 43.856.593 62.534 13.792 22.063 30.861 17.188 64.875 7.47 24.354-6.958 27.998-10.902 33.002-24.75 1.895-5.242 4.253-11.768 10.182-21.648 8.325-13.875 12.256-13.754 20.867-13.495 8.1.24 19.204.581 34.659-9.482 9.55-6.219 12.154-5.873 12.416-5.812.906.204 3.267 3.733 4.828 6.069 4.469 6.683 11.222 16.781 25.892 25.34 14.262 8.319 14.532 19.092 14.771 28.597.155 6.18.316 12.569 5.486 16.472 5.163 3.897 11.911 2.157 14.129 1.584 8.5-2.193 19.166-9.241 21.714-30.356 1.345-11.14-.234-21.393-.302-21.823-.04-.25-.092-.498-.156-.742-2.843-10.805-14.521-20.652-25.816-30.176-5.532-4.665-10.758-9.071-14.414-13.116-4.219-4.667-4.134-6.489-4.134-6.489-.001-.003.117-.315.769-.885 4.85-4.244 7.653-3.585 24.079 12.655 7.233 7.151 15.433 15.258 25.899 22.733 16.453 11.753 20.775 33.582 24.248 51.121 2.372 11.978 4.245 21.438 9.492 27.21 16.507 18.16 51.468.246 37.491-24.6-7.09-12.604-.655-25.537 19.126-38.439 3.469-2.264 4.447-6.91 2.185-10.38-2.265-3.471-6.911-4.445-10.38-2.185-12.826 8.367-21.481 17.505-25.726 27.16-4.542 10.333-3.947 21.121 1.721 31.197 1.913 3.401 1.571 5.781-1.108 7.715-3.413 2.464-9.134 2.825-12.209-.559-2.442-2.687-4.188-11.505-5.877-20.033-3.777-19.077-8.951-45.204-30.244-60.414-9.492-6.779-17.238-14.438-24.072-21.194-7.21-7.129-13.438-13.285-19.936-16.594-8.59-4.375-17.087-3.229-24.566 3.316-4.922 4.307-5.92 9.079-5.891 12.323.1 10.873 11.119 20.165 23.878 30.923 8.448 7.124 18.922 15.955 20.872 22.154 1.504 12.229 1.043 32.461-11.097 35.122-.734-9.601 2.162-30.942-22.374-45.255-11.683-6.815-16.838-14.525-20.981-20.721-3.728-5.575-7.248-10.841-13.993-12.363-6.229-1.408-13.156.873-23.905 7.873-11.513 7.497-18.887 7.275-26.021 7.06-12.499-.392-22.256.892-34.183 20.771-6.679 11.13-9.423 18.723-11.427 24.268-1.835 5.078-2.504 6.755-4.364 8.223-2.608 2.059-8.187 4.213-18.651 7.202-36.467 10.419-40.956 10.325-48.033-.997-9.421-15.072-11.659-18.653.593-48.963 4.192-10.37 5.654-19.356 6.722-25.918.593-3.641 1.404-8.627 2.267-9.529.773-.431 4.79-1.337 23.995 5.163 29.831 10.095 44.003-.117 49.797-7.103 8.894-10.723 9.174-26.078 4.308-34.729-.728-1.293-1.526-2.604-2.373-3.991-2.843-4.66-7.14-11.703-5.647-15.109.466-1.063 2.973-4.731 15.656-7.269 19.278-3.855 29.201-15.83 37.955-26.396 8.948-10.799 16.016-19.328 31.848-19.328 18.794 0 28.963-4.427 37.134-7.983 8.489-3.695 14.621-6.365 29.408-3.448 20.431 4.025 28.585-1.421 37.122-8.963 4.495-3.971 8.377-7.399 17.303-8.605 2.705-.365 5.173-.96 7.442-1.796 6.85 6.822 14.819 12.432 23.267 16.554.886.432 1.597 1.091 2.057 1.906l25.035 44.365c4.759 8.434 16.905 8.422 21.658 0l25.034-44.365c.467-.827 1.235-1.506 2.05-1.903 30.033-14.652 48.657-44.488 48.657-77.835 0-37.028-23.478-69.254-57.036-81.403.387-2.938.361-5.944.333-8.901-.079-8.744.184-14.342 6.327-19.052 1.249-.958 2.598-1.962 4.011-3.014 13.698-10.196 34.399-25.605 31.203-48.046-.627-4.405 2.96-8.257 7.369-8.257h33.2c4.091 0 7.419 3.328 7.419 7.419v149.325c0 4.143 3.357 7.5 7.5 7.5s7.5-3.357 7.5-7.5v-149.32c.002-12.362-10.055-22.419-22.417-22.419zm-194.407 102.18c-11.326 2.172-19.345 14.602-22.002 25.229-.722 2.888-2.475 4.538-5.769 7.443-16.046 14.154-15.325 27.339-8.705 58.527 3.973 18.718 2.827 19.451-.284 20.44-9.824 3.118-15.688-4.914-27.858-20.12v-.001c-7.345-9.181-17.853-9.507-24.806-9.723-1.611-.05-3.881-.12-5.16-.352-.233-8.363 10.285-19.46 19.216-29.019 9.55-10.219 17.797-19.044 18.708-28.16.468-4.679 3.873-20.58 13.88-37.743 7.75-13.294 21.624-30.596 43.709-37.529 38.165-11.981 52.773-1.108 53.914-.186.604.654 1.102.942 1.925 1.35 5.547 2.739 16.975 10.723 14.799 16.597-1.225 3.307-5.251 6.444-9.146 9.479-5.523 4.304-11.785 9.183-11.714 16.88.023 2.617.833 4.961 1.987 6.989-10.284 3.71-19.871 9.444-27.838 16.536-.729-2.016-1.753-4.026-3.151-5.968-8.164-11.338-17.101-11.552-21.705-10.669zm153.998 81.493c0 27.526-15.363 52.22-40.237 64.354-3.622 1.769-6.573 4.539-8.533 8.012l-22.8 40.405-22.8-40.404c-5.852-10.37-15.531-7.524-31.056-25.249-11.504-13.113-17.305-29.124-17.694-45.363-.955-39.689 30.003-72.389 69.86-73.307 40.583-.888 73.26 31.76 73.26 71.552z" fill="#003399" data-original="#000000"/></g></svg>
