<?xml version="1.0" encoding="UTF-8" standalone="no"?>
<!DOCTYPE svg PUBLIC "-//W3C//DTD SVG 1.1//EN" "http://www.w3.org/Graphics/SVG/1.1/DTD/svg11.dtd">
<svg width="100%" height="100%" viewBox="0 0 512 512" version="1.1" xmlns="http://www.w3.org/2000/svg" xmlns:xlink="http://www.w3.org/1999/xlink" xml:space="preserve" xmlns:serif="http://www.serif.com/" style="fill-rule:evenodd;clip-rule:evenodd;stroke-linejoin:round;stroke-miterlimit:2;">
    <g>
        <g>
            <g>
                <path d="M255.985,59.99C247.701,59.99 240.985,66.706 240.985,74.99C240.985,83.274 247.701,89.99 255.985,89.99C305.619,89.99 346,130.364 346,179.99C346,188.274 352.716,194.99 361,194.99C369.284,194.99 376,188.274 376,179.99C376,113.822 322.162,59.99 255.985,59.99Z" style="fill:rgb(0,51,153);fill-rule:nonzero;"/>
            </g>
        </g>
        <g>
            <g>
                <path d="M217.335,4.03C149.565,18.191 94.615,72.615 80.156,140.806C67.947,198.388 82.992,256.198 121.433,299.413C140.224,320.536 151,348.419 151,375.99L151,405.99C151,425.95 164.067,442.907 182.093,448.78C188.021,483.805 218.421,511.989 256,511.989C293.569,511.989 323.977,483.814 329.907,448.78C347.933,442.907 361,425.95 361,405.989L361,375.989C361,348.364 371.812,320.816 391.442,298.42C420.176,265.64 436,223.58 436,179.99C436,66.425 332.051,-19.936 217.335,4.03ZM256,481.99C236.718,481.99 219.812,468.722 213.569,450.89L298.43,450.89C292.188,468.722 275.282,481.99 256,481.99ZM331,405.99C331,414.261 324.271,420.99 316,420.99L196,420.99C187.729,420.99 181,414.261 181,405.99L181,390.99L331,390.99L331,405.99ZM368.882,278.647C347.962,302.514 335.091,331.294 331.825,360.99L180.178,360.99C176.916,331.278 164.078,302.215 143.85,279.474C111.812,243.458 99.293,195.183 109.504,147.029C121.423,90.815 167.223,45.15 223.472,33.397C319.496,13.33 406,85.442 406,179.99C406,216.302 392.818,251.339 368.882,278.647Z" style="fill:rgb(0,51,153);fill-rule:nonzero;"/>
            </g>
        </g>
        <g>
            <g>
                <path d="M45,179.99L15,179.99C6.716,179.99 0,186.706 0,194.99C0,203.274 6.716,209.99 15,209.99L45,209.99C53.284,209.99 60,203.274 60,194.99C60,186.706 53.284,179.99 45,179.99Z" style="fill:rgb(0,51,153);fill-rule:nonzero;"/>
            </g>
        </g>
        <g>
            <g>
                <path d="M51.213,104.99L30,83.777C24.143,77.919 14.645,77.919 8.787,83.777C2.929,89.635 2.929,99.132 8.787,104.99L30,126.203C35.857,132.061 45.355,132.062 51.213,126.203C57.071,120.345 57.071,110.848 51.213,104.99Z" style="fill:rgb(0,51,153);fill-rule:nonzero;"/>
            </g>
        </g>
        <g>
            <g>
                <path d="M51.213,263.777C45.355,257.919 35.857,257.919 30,263.777L8.787,284.99C2.929,290.848 2.929,300.345 8.787,306.203C14.644,312.061 24.142,312.062 30,306.203L51.213,284.99C57.071,279.132 57.071,269.635 51.213,263.777Z" style="fill:rgb(0,51,153);fill-rule:nonzero;"/>
            </g>
        </g>
        <g>
            <g>
                <path d="M497,179.99L467,179.99C458.716,179.99 452,186.706 452,194.99C452,203.274 458.716,209.99 467,209.99L497,209.99C505.284,209.99 512,203.274 512,194.99C512,186.706 505.284,179.99 497,179.99Z" style="fill:rgb(0,51,153);fill-rule:nonzero;"/>
            </g>
        </g>
        <g>
            <g>
                <path d="M503.213,83.777C497.356,77.919 487.858,77.919 482,83.777L460.787,104.99C454.929,110.848 454.929,120.345 460.787,126.203C466.644,132.06 476.142,132.061 482,126.203L503.213,104.99C509.071,99.132 509.071,89.635 503.213,83.777Z" style="fill:rgb(0,51,153);fill-rule:nonzero;"/>
            </g>
        </g>
        <g>
            <g>
                <path d="M503.213,284.99L482,263.777C476.143,257.919 466.645,257.919 460.787,263.777C454.929,269.635 454.929,279.132 460.787,284.99L482,306.203C487.857,312.06 497.355,312.061 503.213,306.203C509.071,300.345 509.071,290.848 503.213,284.99Z" style="fill:rgb(0,51,153);fill-rule:nonzero;"/>
            </g>
        </g>
    </g>
</svg>
