<?xml version="1.0"?>
<svg xmlns="http://www.w3.org/2000/svg" xmlns:xlink="http://www.w3.org/1999/xlink" xmlns:svgjs="http://svgjs.com/svgjs" version="1.1" width="512px" height="512px" x="0" y="0" viewBox="0 0 59 58" style="enable-background:new 0 0 512 512" xml:space="preserve" class=""><g><g id="Page-1" fill="none" fill-rule="evenodd"><g id="029---Fast" fill="rgb(0,0,0)" fill-rule="nonzero"><circle id="Oval" cx="43" cy="5" r="5" fill="#003399" data-original="#000000" class=""/><path id="Shape" d="m41.08 21.2-3.09 11.54c-.1289931.4587521.0903552.9438494.52 1.15l6.85 3.43c.7593489.3791881 1.322541 1.0622857 1.55 1.88.2302422.817846.0991941 1.6951403-.36 2.41l-6.99 11c-.5487386.8669917-1.5039467 1.3917898-2.53 1.39-.620288.004022-1.2259128-.1885177-1.73-.55-1.3126705-1.000167-1.6194446-2.8495769-.7-4.22l4.51-7.1c.1520045-.2379455.1963336-.5290616.1220415-.8014659-.0742921-.2724042-.2602807-.5007064-.5120415-.6285341l-4.27-2.13c-.2847096-.1418219-.6197186-.1406429-.9034229.0031794s-.4826789.4133434-.5365771.7268206l-1.02 6.2c-.1105893.6577763-.4379446 1.2596877-.93 1.71l-11.03 10c-1.2205493 1.121138-3.1188619 1.0405492-4.2399999-.1800001-1.121138-1.2205492-1.0405493-3.1188618.1799999-4.2399999l9.63-9.37c.2812143-.2738631.4756225-.6244239.559-1.008l4.451-20.432c.0790685-.3550063-.0408447-.7249507-.3131394-.9660667-.2722947-.2411159-.6540314-.3153805-.9968606-.1939333l-3.84 1.37c-.2798391.0999318-.5000682.3201609-.6.6l-3.36 9.24c-.429829 1.186167-1.5583643 1.974541-2.82 1.97-.3510485-.0012475-.6993351-.0621131-1.03-.18-1.5529909-.5679351-2.3535931-2.2854281-1.79-3.84l4-11c.3068051-.8385616.9697515-1.4978453 1.81-1.8 0 0 13.76-4.92 13.84-4.94.9103014-.2939196 1.8861931-.3182301 2.81-.07.7759012.2086363 1.5069836.5577391 2.157 1.03 2.323 1.739 8.323 6.2 8.323 6.2.4213901.3057421 1.0068682.2370159 1.346-.158l3.6-4.191c.5873909-.6870224 1.453237-1.0725803 2.356838-1.0494906.903601.0230896 1.7486257.4523652 2.300162 1.1684906.861312 1.1766456.7838088 2.7950446-.186 3.884l-5.917 6.896c-1.0158119 1.1875722-2.7731474 1.3964162-4.039.48l-7.185-5.23" fill="#003399" data-original="#000000" class=""/><path id="Shape" d="m14 49h-13c-.55228475 0-1-.4477153-1-1s.44771525-1 1-1h13c.5522847 0 1 .4477153 1 1s-.4477153 1-1 1z" fill="#003399" data-original="#000000" class=""/><path id="Shape" d="m13 24h-12c-.55228475 0-1-.4477153-1-1s.44771525-1 1-1h12c.5522847 0 1 .4477153 1 1s-.4477153 1-1 1z" fill="#003399" data-original="#000000" class=""/><path id="Shape" d="m11 34h-7c-.55228475 0-1-.4477153-1-1s.44771525-1 1-1h7c.5522847 0 1 .4477153 1 1s-.4477153 1-1 1z" fill="#003399" data-original="#000000" class=""/><path id="Shape" d="m20 39h-19c-.55228475 0-1-.4477153-1-1s.44771525-1 1-1h19c.5522847 0 1 .4477153 1 1s-.4477153 1-1 1z" fill="#003399" data-original="#000000" class=""/><path id="Shape" d="m21 14h-20c-.55228475 0-1-.4477153-1-1s.44771525-1 1-1h20c.5522847 0 1 .4477153 1 1s-.4477153 1-1 1z" fill="#003399" data-original="#000000" class=""/><path id="Shape" d="m11 54h-9c-.55228475 0-1-.4477153-1-1s.44771525-1 1-1h9c.5522847 0 1 .4477153 1 1s-.4477153 1-1 1z" fill="#003399" data-original="#000000" class=""/><path id="Shape" d="m12 29h-10c-.55228475 0-1-.4477153-1-1s.44771525-1 1-1h10c.5522847 0 1 .4477153 1 1s-.4477153 1-1 1z" fill="#003399" data-original="#000000" class=""/><path id="Shape" d="m16 19h-14c-.55228475 0-1-.4477153-1-1s.44771525-1 1-1h14c.5522847 0 1 .4477153 1 1s-.4477153 1-1 1z" fill="#003399" data-original="#000000" class=""/><path id="Shape" d="m20 44h-18c-.55228475 0-1-.4477153-1-1s.44771525-1 1-1h18c.5522847 0 1 .4477153 1 1s-.4477153 1-1 1z" fill="#003399" data-original="#000000" class=""/></g></g></g></svg>
