<?xml version="1.0" encoding="UTF-8" standalone="no"?>
<!DOCTYPE svg PUBLIC "-//W3C//DTD SVG 1.1//EN" "http://www.w3.org/Graphics/SVG/1.1/DTD/svg11.dtd">
<svg width="100%" height="100%" viewBox="0 0 512 512" version="1.1" xmlns="http://www.w3.org/2000/svg" xmlns:xlink="http://www.w3.org/1999/xlink" xml:space="preserve" xmlns:serif="http://www.serif.com/" style="fill-rule:evenodd;clip-rule:evenodd;stroke-linejoin:round;stroke-miterlimit:2;">
    <g>
        <g>
            <g>
                <path d="M256,0C231.186,0 211,20.186 211,45C211,69.814 231.186,90 256,90C280.814,90 301,69.814 301,45C301,20.186 280.815,0 256,0Z" style="fill:rgb(0,51,153);fill-rule:nonzero;"/>
            </g>
        </g>
        <g>
            <g>
                <path d="M136,60C111.186,60 91,80.186 91,105C91,129.814 111.186,150 136,150C160.814,150 181,129.814 181,105C181,80.186 160.815,60 136,60Z" style="fill:rgb(0,51,153);fill-rule:nonzero;"/>
            </g>
        </g>
        <g>
            <g>
                <path d="M376,60C351.186,60 331,80.186 331,105C331,129.814 351.186,150 376,150C400.814,150 421,129.814 421,105C421,80.186 400.815,60 376,60Z" style="fill:rgb(0,51,153);fill-rule:nonzero;"/>
            </g>
        </g>
        <g>
            <g>
                <path d="M76,180C51.186,180 31,200.186 31,225C31,249.814 51.186,270 76,270C100.814,270 121,249.814 121,225C121,200.186 100.815,180 76,180Z" style="fill:rgb(0,51,153);fill-rule:nonzero;"/>
            </g>
        </g>
        <g>
            <g>
                <path d="M436,180C411.186,180 391,200.186 391,225C391,249.814 411.186,270 436,270C460.814,270 481,249.814 481,225C481,200.186 460.815,180 436,180Z" style="fill:rgb(0,51,153);fill-rule:nonzero;"/>
            </g>
        </g>
        <g>
            <g>
                <path d="M224.023,330L256,377.959L287.979,330L224.023,330Z" style="fill:rgb(0,51,153);fill-rule:nonzero;"/>
            </g>
        </g>
        <g>
            <g>
                <path d="M503.211,323.789C491.511,312.089 472.468,312.109 460.789,323.789L402.191,381.401L332.626,335.039C329.874,333.188 326.697,331.963 323.28,331.121L268.48,413.321C265.697,417.496 261.009,420.001 256,420.001C250.991,420.001 246.303,417.496 243.52,413.321L188.63,330.986C185.479,331.797 182.386,333.017 179.359,335.04L109.808,381.402L51.211,323.79C39.511,312.09 20.468,312.11 8.789,323.79C-2.9,335.479 -2.9,354.522 8.789,366.212L84.789,441.212C94.527,450.95 111.235,452.59 122.641,444.962L166,416.06L166,497C166,505.284 172.716,512 181,512L331,512C339.284,512 346,505.284 346,497L346,416.06L389.389,444.961C400.881,452.657 418.523,450.899 428.211,441.211L503.211,366.211C514.901,354.521 514.901,335.479 503.211,323.789Z" style="fill:rgb(0,51,153);fill-rule:nonzero;"/>
            </g>
        </g>
        <g>
            <g>
                <circle cx="256" cy="225" r="75" style="fill:rgb(0,51,153);"/>
            </g>
        </g>
    </g>
</svg>
