<?xml version="1.0"?>
<svg xmlns="http://www.w3.org/2000/svg" xmlns:xlink="http://www.w3.org/1999/xlink" xmlns:svgjs="http://svgjs.com/svgjs" version="1.1" width="512px" height="512px" x="0" y="0" viewBox="0 0 512 512" style="enable-background:new 0 0 512 512" xml:space="preserve"><g>
<g>
	<g>
		<path d="M256,0c-24.814,0-45,20.186-45,45c0,24.814,20.186,45,45,45c24.814,0,45-20.186,45-45S280.815,0,256,0z" fill="#ffffff" data-original="#000000"/>
	</g>
</g>
<g>
	<g>
		<path d="M136,60c-24.814,0-45,20.186-45,45c0,24.814,20.186,45,45,45s45-20.186,45-45C181,80.186,160.815,60,136,60z" fill="#ffffff" data-original="#000000"/>
	</g>
</g>
<g>
	<g>
		<path d="M376,60c-24.814,0-45,20.186-45,45c0,24.814,20.186,45,45,45c24.814,0,45-20.186,45-45C421,80.186,400.815,60,376,60z" fill="#ffffff" data-original="#000000"/>
	</g>
</g>
<g>
	<g>
		<path d="M76,180c-24.814,0-45,20.186-45,45c0,24.814,20.186,45,45,45s45-20.186,45-45C121,200.186,100.815,180,76,180z" fill="#ffffff" data-original="#000000"/>
	</g>
</g>
<g>
	<g>
		<path d="M436,180c-24.814,0-45,20.186-45,45c0,24.814,20.186,45,45,45c24.814,0,45-20.186,45-45C481,200.186,460.815,180,436,180z    " fill="#ffffff" data-original="#000000"/>
	</g>
</g>
<g>
	<g>
		<polygon points="224.023,330 256,377.959 287.979,330   " fill="#ffffff" data-original="#000000"/>
	</g>
</g>
<g>
	<g>
		<path d="M503.211,323.789c-11.7-11.7-30.743-11.68-42.422,0l-58.598,57.612l-69.565-46.362c-2.752-1.851-5.929-3.076-9.346-3.918    l-54.8,82.2c-2.783,4.175-7.471,6.68-12.48,6.68c-5.009,0-9.697-2.505-12.48-6.68l-54.89-82.335    c-3.151,0.811-6.244,2.031-9.271,4.054l-69.551,46.362L51.211,323.79c-11.7-11.7-30.743-11.68-42.422,0    c-11.689,11.689-11.689,30.732,0,42.422l76,75c9.738,9.738,26.446,11.378,37.852,3.75L166,416.06V497c0,8.284,6.716,15,15,15h150    c8.284,0,15-6.716,15-15v-80.94l43.389,28.901c11.492,7.696,29.134,5.938,38.822-3.75l75-75    C514.901,354.521,514.901,335.479,503.211,323.789z" fill="#ffffff" data-original="#000000"/>
	</g>
</g>
<g>
	<g>
		<circle cx="256" cy="225" r="75" fill="#ffffff" data-original="#000000"/>
	</g>
</g>
<g>
</g>
<g>
</g>
<g>
</g>
<g>
</g>
<g>
</g>
<g>
</g>
<g>
</g>
<g>
</g>
<g>
</g>
<g>
</g>
<g>
</g>
<g>
</g>
<g>
</g>
<g>
</g>
<g>
</g>
</g></svg>
