<?xml version="1.0"?>
<svg xmlns="http://www.w3.org/2000/svg" xmlns:xlink="http://www.w3.org/1999/xlink" xmlns:svgjs="http://svgjs.com/svgjs" version="1.1" width="512px" height="512px" x="0" y="0" viewBox="0 0 76 76" style="enable-background:new 0 0 512 512" xml:space="preserve"><g><path d="M38,22.13a8.63,8.63,0,0,0,8.62-8.62v0A8.62,8.62,0,1,0,38,22.13ZM38,6.85a6.63,6.63,0,0,1,6.62,6.62v0A6.62,6.62,0,1,1,38,6.85Z" fill="#ffffff" data-original="#000000"/><path d="M73,26a4.29,4.29,0,0,0-5.75-.8L58,31.71,49,25a5.74,5.74,0,0,0-3.41-1.13H31a8.21,8.21,0,0,0-4.82,1.59L17.8,31.71,8.69,25.17a4.22,4.22,0,0,0-5,6.82l11.17,8.3a6.15,6.15,0,0,0,6.94.3l6-3.86V50.29L15.36,54.73a8.49,8.49,0,0,0-5.61,8A8.35,8.35,0,0,0,11,67.12a8.51,8.51,0,0,0,10.35,3.44l16.51-6.37L55,70.5a8.53,8.53,0,0,0,10.25-3.59A8.2,8.2,0,0,0,65.88,60a8.39,8.39,0,0,0-5-5L48.34,50.3V36.67l6.77,4.09a6.13,6.13,0,0,0,6.83-.52l10.42-8.15A4.2,4.2,0,0,0,74,29.2,4.25,4.25,0,0,0,73,26ZM64,60.65a6.23,6.23,0,0,1-.51,5.24,6.5,6.5,0,0,1-7.84,2.74L41.89,63.54a3.38,3.38,0,0,0,2-1.87,3.35,3.35,0,0,0,0-2.58l12.38,3.84a.74.74,0,0,0,.29,0,1,1,0,0,0,.3-2L39.67,55.66h-.12a8.55,8.55,0,0,0-5.45.05L19.11,61a1,1,0,0,0,.68,1.89l15-5.34a6.52,6.52,0,0,1,7.08,1.85,1.36,1.36,0,0,1,.22,1.44,1.34,1.34,0,0,1-1.19.83l-2.29.12a1,1,0,0,0-.3.06L20.65,68.7a6.52,6.52,0,0,1-7.93-2.63A6.42,6.42,0,0,1,16,56.62L29,52H47.16l13,4.83A6.35,6.35,0,0,1,64,60.65ZM72,29a2.2,2.2,0,0,1-.85,1.53L60.71,38.67a4.16,4.16,0,0,1-4.59.37l-7.78-4.71V32.85a1,1,0,1,0-2,0V50H29.78V32.85a1,1,0,0,0-2,0v1.5l-7,4.54a4.17,4.17,0,0,1-4.68-.2L4.9,30.39a2.23,2.23,0,0,1-.32-3.29,2.24,2.24,0,0,1,2.94-.31l9.71,7a1,1,0,0,0,1.17,0l9-6.65A6.14,6.14,0,0,1,31,25.9H45.55a3.74,3.74,0,0,1,2.22.73l9.58,7.12a1,1,0,0,0,1.17,0l9.91-6.9a2.28,2.28,0,0,1,3.06.43A2.22,2.22,0,0,1,72,29Z" fill="#ffffff" data-original="#000000"/></g></svg>
