<?xml version="1.0"?>
<svg xmlns="http://www.w3.org/2000/svg" xmlns:xlink="http://www.w3.org/1999/xlink" xmlns:svgjs="http://svgjs.com/svgjs" version="1.1" width="512px" height="512px" x="0" y="0" viewBox="0 0 76 76" style="enable-background:new 0 0 512 512" xml:space="preserve" class=""><g><path d="M63.87,56.38l-13.6-3.9c-.12-1.35-.17-2.9-.16-4.6H60a5.86,5.86,0,0,0,5.39-3.41,5.73,5.73,0,0,0-.81-6.16L54.41,26.14a13.06,13.06,0,0,0-10-4.66H42.6A9.71,9.71,0,0,0,47.68,13V11.68a9.68,9.68,0,0,0-19.36,0V13a9.71,9.71,0,0,0,5.08,8.52H31.64a13.06,13.06,0,0,0-10,4.66L11.38,38.31a5.73,5.73,0,0,0-.81,6.16A5.86,5.86,0,0,0,16,47.88h9.92c0,1.7,0,3.25-.15,4.6l-13.6,3.9A9,9,0,0,0,14.68,74H61.32a9,9,0,0,0,2.55-17.62ZM30.32,13V11.68a7.68,7.68,0,0,1,15.36,0V13a7.68,7.68,0,0,1-15.36,0ZM12.38,43.63a3.68,3.68,0,0,1,.54-4l10.2-12.18a11.1,11.1,0,0,1,8.52-3.94H44.36a11.1,11.1,0,0,1,8.52,3.94L63.08,39.6a3.68,3.68,0,0,1,.54,4A3.9,3.9,0,0,1,60,45.88H40.46A1.43,1.43,0,0,1,39,44.47V32.19a3,3,0,0,1,3,2.93v5.21a1,1,0,0,0,1,1H54.76a1,1,0,0,0,.78-1.62l-6.66-8.33a1,1,0,0,0-1.41-.15,1,1,0,0,0-.15,1.4L49.18,35c-.11.73-.33,2.32-.54,4.37H44V35.12a5,5,0,0,0-5-4.94,1.91,1.91,0,0,0-1,.27,1.91,1.91,0,0,0-1-.27,5,5,0,0,0-5,4.94v4.21H27.36c-.21-2-.43-3.64-.54-4.37l1.86-2.33a1,1,0,0,0-.15-1.4,1,1,0,0,0-1.41.15l-6.66,8.33a1,1,0,0,0,.78,1.62H33a1,1,0,0,0,1-1V35.12a3,3,0,0,1,3-3V44.47a1.43,1.43,0,0,1-1.46,1.41H16A3.9,3.9,0,0,1,12.38,43.63Zm40.3-4.3h-2c.09-.82.18-1.57.26-2.21ZM25.09,37.12c.08.63.17,1.39.26,2.21h-2ZM35.54,47.88a3.47,3.47,0,0,0,2.46-1,3.47,3.47,0,0,0,2.46,1h7.65c0,1.6,0,3.06.14,4.38H27.75c.1-1.31.15-2.78.13-4.38ZM27.71,67.55l-2.86,1.57a2.6,2.6,0,0,0-1.36,2.28,2.89,2.89,0,0,0,.08.6H20.81V65.72ZM26.13,72a.62.62,0,0,1-.64-.6.6.6,0,0,1,.32-.52l8.41-4.64a2.94,2.94,0,0,1,3.49.49l2.13,2.15a1,1,0,0,0,.94.26l14-3.44V72H26.13Zm35.19,0H56.8V65.21L58,64.9A1,1,0,1,0,57.57,63l-16.71,4.1-1.73-1.74a4.94,4.94,0,0,0-5.87-.83l-3,1.66L18.19,63a1,1,0,0,0-1.22.71,1,1,0,0,0,.71,1.22l1.13.3V72H14.68a7,7,0,0,1-2-13.7l14.11-4H49.21l14.11,4a7,7,0,0,1-2,13.7Z" fill="#ffffff" data-original="#000000" class=""/></g></svg>
