<?xml version="1.0" encoding="UTF-8" standalone="no"?>
<!DOCTYPE svg PUBLIC "-//W3C//DTD SVG 1.1//EN" "http://www.w3.org/Graphics/SVG/1.1/DTD/svg11.dtd">
<svg width="100%" height="100%" viewBox="0 0 512 512" version="1.1" xmlns="http://www.w3.org/2000/svg" xmlns:xlink="http://www.w3.org/1999/xlink" xml:space="preserve" xmlns:serif="http://www.serif.com/" style="fill-rule:evenodd;clip-rule:evenodd;stroke-linejoin:round;stroke-miterlimit:2;">
    <g>
        <path d="M430.282,379.823L338.661,353.549C337.853,344.455 337.516,334.013 337.583,322.56L404.211,322.56C419.758,322.737 434.022,313.712 440.522,299.587C447,285.908 444.859,269.628 435.065,258.088L366.552,176.101C349.845,156.211 325.159,144.708 299.183,144.707L286.989,144.707C307.934,133.346 321.077,111.406 321.213,87.579L321.213,78.686C321.213,42.912 291.775,13.474 256,13.474C220.225,13.474 190.787,42.912 190.787,78.686L190.787,87.579C190.824,111.502 203.982,133.57 225.011,144.977L213.154,144.977C187.178,144.977 162.492,156.481 145.785,176.371L76.665,258.088C66.871,269.628 64.731,285.908 71.208,299.587C77.747,313.802 92.146,322.844 107.789,322.56L174.619,322.56C174.619,334.013 174.619,344.455 173.608,353.549L81.987,379.823C56.415,387.496 38.781,411.198 38.781,437.897C38.781,470.964 65.831,498.245 98.897,498.526L413.103,498.526C446.269,498.389 473.483,471.062 473.483,437.895C473.483,411.199 455.851,387.498 430.282,379.823ZM204.261,87.579L204.261,78.686C204.261,50.303 227.617,26.947 256,26.947C284.383,26.947 307.739,50.303 307.739,78.686L307.739,87.579C307.739,115.962 284.383,139.318 256,139.318C227.617,139.318 204.261,115.962 204.261,87.579ZM83.402,293.928C79.149,285.04 80.582,274.424 87.04,266.981L155.756,184.926C170.013,168.036 191.05,158.308 213.154,158.383L298.846,158.383C320.95,158.308 341.987,168.036 356.244,184.926L424.96,266.779C431.418,274.222 432.851,284.838 428.598,293.726C424.261,303.228 414.653,309.279 404.211,309.086L272.573,309.086C272.505,309.088 272.437,309.088 272.37,309.088C267.135,309.088 262.809,304.822 262.737,299.587L262.737,216.859C273.648,216.856 282.693,225.69 282.947,236.598L282.947,271.697C282.947,275.393 285.988,278.434 289.684,278.434L368.909,278.434C372.593,278.417 375.615,275.381 375.615,271.697C375.615,270.181 375.104,268.709 374.164,267.52L329.297,211.402C328.019,209.811 326.085,208.884 324.045,208.884C322.498,208.884 320.998,209.417 319.798,210.392C316.949,212.71 316.494,216.954 318.787,219.823L331.318,235.789C330.577,240.707 329.095,251.419 327.68,265.229L296.421,265.229L296.421,236.598C296.201,218.272 281.064,203.317 262.737,203.318C260.367,203.292 258.035,203.922 256,205.137C253.965,203.922 251.633,203.292 249.263,203.318C230.936,203.317 215.799,218.272 215.579,236.598L215.579,264.96L184.32,264.96C182.905,251.486 181.423,240.438 180.682,235.52L193.213,219.823C195.506,216.954 195.051,212.71 192.202,210.392C191.002,209.417 189.502,208.884 187.955,208.884C185.915,208.884 183.981,209.811 182.703,211.402L137.836,267.52C136.896,268.709 136.385,270.181 136.385,271.697C136.385,275.381 139.407,278.417 143.091,278.434L222.316,278.434C226.012,278.434 229.053,275.393 229.053,271.697L229.053,236.598C229.053,225.511 238.176,216.387 249.263,216.387L249.263,299.587C249.191,304.822 244.865,309.088 239.63,309.088C239.563,309.088 239.495,309.088 239.427,309.086L107.789,309.086C97.394,309.315 87.799,303.352 83.402,293.928ZM354.897,264.96L341.423,264.96C342.029,259.436 342.636,254.383 343.175,250.072L354.897,264.96ZM169.027,250.072C169.566,254.316 170.173,259.436 170.779,264.96L157.305,264.96L169.027,250.072ZM239.427,322.56C245.624,322.601 251.589,320.176 256,315.823C260.411,320.176 266.376,322.601 272.573,322.56L324.109,322.56C324.109,333.339 324.109,343.175 325.053,352.067L186.947,352.067C187.621,343.242 187.958,333.339 187.823,322.56L239.427,322.56ZM186.678,455.074L167.411,465.651C161.783,468.704 158.261,474.608 158.248,481.011C158.286,482.373 158.467,483.728 158.787,485.053L140.194,485.053L140.194,442.745L186.678,455.074ZM176.034,485.053C175.988,485.054 175.942,485.055 175.897,485.055C173.655,485.055 171.793,483.251 171.722,481.011C171.748,479.539 172.576,478.194 173.878,477.507L230.535,446.248C238.214,442.021 247.828,443.371 254.046,449.549L268.396,464.034C270.058,465.675 272.459,466.34 274.728,465.785L369.044,442.611L369.044,485.053L176.034,485.053ZM413.103,485.053L382.653,485.053L382.653,439.309L390.737,437.221C390.75,437.221 390.763,437.221 390.776,437.221C394.472,437.221 397.513,434.18 397.513,430.484C397.513,426.789 394.472,423.747 390.776,423.747C389.759,423.747 388.755,423.978 387.84,424.421L275.267,452.042L263.613,440.32C253.169,429.905 236.989,427.617 224.067,434.728L203.857,445.912L122.543,424.421C118.978,423.486 115.273,425.642 114.324,429.204C113.389,432.77 115.545,436.475 119.107,437.423L126.72,439.444L126.72,485.053L98.897,485.053C73.096,484.953 51.922,463.696 51.922,437.895C51.922,417.169 65.585,398.76 85.423,392.758L180.48,365.811L331.52,365.811L426.577,392.758C446.415,398.76 460.078,417.169 460.078,437.895C460.078,463.696 438.904,484.953 413.103,485.053Z" style="fill:rgb(0,51,153);fill-rule:nonzero;"/>
    </g>
</svg>
