<?xml version="1.0" encoding="UTF-8" standalone="no"?>
<!DOCTYPE svg PUBLIC "-//W3C//DTD SVG 1.1//EN" "http://www.w3.org/Graphics/SVG/1.1/DTD/svg11.dtd">
<svg width="100%" height="100%" viewBox="0 0 512 512" version="1.1" xmlns="http://www.w3.org/2000/svg" xmlns:xlink="http://www.w3.org/1999/xlink" xml:space="preserve" xmlns:serif="http://www.serif.com/" style="fill-rule:evenodd;clip-rule:evenodd;stroke-linejoin:round;stroke-miterlimit:2;">
    <g>
        <path d="M256,149.086C287.843,149.049 314.035,122.858 314.072,91.015C314.072,59.158 287.857,32.943 256,32.943C224.143,32.943 197.928,59.158 197.928,91.015C197.928,122.872 224.143,149.086 256,149.086ZM256,46.147C280.452,46.184 300.561,66.294 300.598,90.745C300.598,115.211 280.466,135.343 256,135.343C231.534,135.343 211.402,115.211 211.402,90.745C211.402,66.28 231.534,46.147 256,46.147Z" style="fill:rgb(0,51,153);fill-rule:nonzero;"/>
        <path d="M491.789,175.158C482.289,163.632 465.339,161.274 453.053,169.768L390.737,213.625L330.105,168.421C323.461,163.492 315.406,160.823 307.133,160.808L208.842,160.808C197.16,160.86 185.79,164.61 176.371,171.52L119.916,213.625L58.543,169.566C53.659,165.985 47.757,164.054 41.701,164.054C26.075,164.054 13.216,176.913 13.216,192.539C13.216,201.607 17.546,210.15 24.859,215.512L100.109,271.427C113.755,281.658 132.385,282.464 146.863,273.448L187.284,247.444L187.284,338.796L103.478,368.707C80.823,376.877 65.646,398.519 65.684,422.602C65.69,433.05 68.606,443.293 74.105,452.177C88.633,475.643 118.147,485.452 143.832,475.352L255.057,432.438L370.526,474.947C396.265,484.436 425.386,474.237 439.579,450.762C447.808,436.646 449.363,419.582 443.823,404.211C438.109,388.577 425.772,376.24 410.139,370.526L325.659,338.863L325.659,247.04L371.267,274.594C385.857,282.886 404.114,281.496 417.28,271.091L487.478,216.185C493.678,211.492 497.677,204.445 498.526,196.716C499.329,188.914 496.892,181.115 491.789,175.158ZM431.158,408.589C435.283,420.279 434.024,433.216 427.722,443.891C416.898,461.883 394.581,469.683 374.905,462.349L282.206,428.059C288.271,425.949 293.168,421.37 295.68,415.461C298,409.902 298,403.639 295.68,398.08L379.082,423.949C379.727,424.078 380.391,424.078 381.036,423.949C381.37,424 381.708,424.025 382.046,424.025C385.783,424.025 388.859,420.95 388.859,417.213C388.859,413.855 386.377,410.974 383.057,410.476L267.251,374.973L266.442,374.973C254.497,371.077 241.598,371.196 229.726,375.309L128.741,410.947C126.062,411.911 124.266,414.467 124.266,417.314C124.266,421.025 127.32,424.08 131.032,424.08C131.812,424.08 132.587,423.944 133.322,423.68L234.375,387.705C251.29,381.718 270.248,386.671 282.072,400.168C284.398,402.838 284.977,406.627 283.554,409.869C282.211,413.138 279.068,415.33 275.537,415.461L260.109,416.269C259.419,416.3 258.737,416.436 258.088,416.674L139.116,462.821C119.446,470.568 96.835,463.069 85.693,445.103C81.39,438.226 79.108,430.275 79.108,422.163C79.108,403.937 90.628,387.579 107.789,381.44L195.368,350.316L317.709,350.316L405.288,382.855C417.314,387.138 426.812,396.587 431.158,408.589ZM485.053,195.368C484.652,199.446 482.577,203.181 479.326,205.676L408.994,260.514C400.146,267.48 387.921,268.465 378.072,263.006L325.659,231.276L325.659,221.305C325.659,217.61 322.618,214.568 318.922,214.568C315.226,214.568 312.185,217.61 312.185,221.305L312.185,336.842L200.623,336.842L200.623,221.305C200.623,217.61 197.582,214.568 193.886,214.568C190.191,214.568 187.149,217.61 187.149,221.305L187.149,231.411L139.992,261.996C130.22,268.037 117.684,267.501 108.463,260.648L33.011,204.733C29.199,201.9 26.948,197.423 26.948,192.674C26.948,188.938 28.341,185.333 30.855,182.568C35.971,177.022 44.501,176.123 50.661,180.48L116.076,227.638C118.423,229.331 121.611,229.331 123.958,227.638L184.589,182.838C191.583,177.555 200.078,174.628 208.842,174.484L306.863,174.484C312.245,174.484 317.488,176.208 321.819,179.402L386.358,227.368C388.705,229.061 391.893,229.061 394.24,227.368L461.002,180.884C467.545,176.36 476.574,177.629 481.617,183.781C484.34,186.987 485.588,191.197 485.053,195.368Z" style="fill:rgb(0,51,153);fill-rule:nonzero;"/>
    </g>
</svg>
