<?xml version="1.0" encoding="UTF-8" standalone="no"?>
<!DOCTYPE svg PUBLIC "-//W3C//DTD SVG 1.1//EN" "http://www.w3.org/Graphics/SVG/1.1/DTD/svg11.dtd">
<svg width="100%" height="100%" viewBox="0 0 512 512" version="1.1" xmlns="http://www.w3.org/2000/svg" xmlns:xlink="http://www.w3.org/1999/xlink" xml:space="preserve" xmlns:serif="http://www.serif.com/" style="fill-rule:evenodd;clip-rule:evenodd;stroke-linejoin:round;stroke-miterlimit:2;">
    <g>
        <g>
            <path d="M151.95,286.554C159.053,278.406 153.267,265.684 142.457,265.684L110.093,265.684C109.883,262.482 109.765,259.255 109.765,256C109.765,175.365 175.365,109.765 256,109.765C294.75,109.765 330.022,124.919 356.216,149.607L401.852,96.219C361.903,59.674 310.492,39.656 256,39.656C198.212,39.656 143.884,62.16 103.022,103.022C62.16,143.884 39.656,198.212 39.656,256C39.656,259.24 39.737,262.467 39.878,265.683L12.618,265.683C1.808,265.683 -3.979,278.405 3.125,286.553L64.62,357.091L77.537,371.907L123.912,318.712L151.95,286.554Z" style="fill:rgb(0,51,153);fill-rule:nonzero;"/>
            <path d="M508.875,245.399L463.008,192.787L434.463,160.045L393.708,206.793L360.051,245.399C352.948,253.547 358.734,266.268 369.544,266.268L401.87,266.268C396.581,342.13 333.182,402.235 256,402.235C222.309,402.235 191.246,390.776 166.493,371.559L120.854,424.951C159.087,455.655 206.258,472.344 256.001,472.344C313.789,472.344 368.117,449.841 408.979,408.978C447.412,370.546 469.598,320.2 472.101,266.269L499.383,266.269C510.192,266.268 515.978,253.547 508.875,245.399Z" style="fill:rgb(0,51,153);fill-rule:nonzero;"/>
        </g>
    </g>
</svg>
