<?xml version="1.0"?>
<svg xmlns="http://www.w3.org/2000/svg" xmlns:xlink="http://www.w3.org/1999/xlink" xmlns:svgjs="http://svgjs.com/svgjs" version="1.1" width="512px" height="512px" x="0" y="0" viewBox="0 0 512 512" style="enable-background:new 0 0 512 512" xml:space="preserve"><g><path d="m90 376h106c16.539062 0 30 13.460938 30 30v106h60v-106c0-49.628906-40.371094-90-90-90h-106v-30l-90 60 90 60zm0 0" fill="#ffffff" data-original="#000000"/><path d="m286 170.261719v-80.261719h30l-60-90-60 90h30v117.472656c15.644531-17.910156 36.308594-31.050781 60-37.210937zm0 0" fill="#ffffff" data-original="#000000"/><path d="m422 196h-106c-49.628906 0-90 40.371094-90 90v4.261719c23.691406 6.160156 44.355469 19.300781 60 37.210937v-41.472656c0-16.539062 13.460938-30 30-30h106v30l90-60-90-60zm0 0" fill="#ffffff" data-original="#000000"/></g></svg>
