<?xml version="1.0"?>
<svg xmlns="http://www.w3.org/2000/svg" xmlns:xlink="http://www.w3.org/1999/xlink" xmlns:svgjs="http://svgjs.com/svgjs" version="1.1" width="512px" height="512px" x="0" y="0" viewBox="0 0 64 64" style="enable-background:new 0 0 512 512" xml:space="preserve" class=""><g><path d="m45 2a1 1 0 0 0 -1-1h-24a1 1 0 0 0 -1 1v26a1 1 0 0 0 1 1h24a1 1 0 0 0 1-1zm-7 25h-12v-10a2 2 0 0 1 2-2h2.674l-1.635 5.726a1 1 0 0 0 .129.829l2 3a1 1 0 0 0 1.664 0l2-3a1 1 0 0 0 .129-.829l-1.635-5.726h2.674a2 2 0 0 1 2 2zm-6-15a2.5 2.5 0 1 1 2.5-2.5 2.5 2.5 0 0 1 -2.5 2.5zm.912 8.83-.912 1.37-.912-1.367.912-3.193zm10.088 6.17h-3v-10a4 4 0 0 0 -4-4h-1.206a4.5 4.5 0 1 0 -5.588 0h-1.206a4 4 0 0 0 -4 4v10h-3v-24h22z" fill="#ffffff" data-original="#000000" class=""/><path d="m40 51h-.382a4 4 0 1 0 -5.236 0h-.382a2.981 2.981 0 0 0 -2 .78 2.981 2.981 0 0 0 -2-.78h-.382a4 4 0 1 0 -5.236 0h-.382a3 3 0 0 0 -3 3v8a1 1 0 0 0 1 1h20a1 1 0 0 0 1-1v-8a3 3 0 0 0 -3-3zm-13-5a2 2 0 1 1 -2 2 2 2 0 0 1 2-2zm4 15h-8v-7a1 1 0 0 1 1-1h6a1 1 0 0 1 1 1zm6-15a2 2 0 1 1 -2 2 2 2 0 0 1 2-2zm4 15h-8v-7a1 1 0 0 1 1-1h6a1 1 0 0 1 1 1z" fill="#ffffff" data-original="#000000" class=""/><path d="m16 32h-12a3 3 0 0 0 -3 3v10a3 3 0 0 0 3 3h4.7l5.748 3.832a1 1 0 0 0 1.525-1.074l-.692-2.758h.719a3 3 0 0 0 3-3v-10a3 3 0 0 0 -3-3zm1 13a1 1 0 0 1 -1 1h-2a1 1 0 0 0 -.97 1.242l.372 1.491-3.847-2.565a1.006 1.006 0 0 0 -.555-.168h-5a1 1 0 0 1 -1-1v-10a1 1 0 0 1 1-1h12a1 1 0 0 1 1 1z" fill="#ffffff" data-original="#000000" class=""/><path d="m8.343 41.243-1.414-1.415-1.414 1.414 2.121 2.122a1 1 0 0 0 1.414 0l5.657-5.657-1.414-1.414z" fill="#ffffff" data-original="#000000" class=""/><path d="m60 32h-12a3 3 0 0 0 -3 3v10a3 3 0 0 0 3 3h.719l-.689 2.758a1 1 0 0 0 1.525 1.074l5.745-3.832h4.7a3 3 0 0 0 3-3v-10a3 3 0 0 0 -3-3zm1 13a1 1 0 0 1 -1 1h-5a1.006 1.006 0 0 0 -.555.168l-3.845 2.565.372-1.491a1 1 0 0 0 -.972-1.242h-2a1 1 0 0 1 -1-1v-10a1 1 0 0 1 1-1h12a1 1 0 0 1 1 1z" fill="#ffffff" data-original="#000000" class=""/><path d="m56.829 35.758-2.829 2.828-2.829-2.828-1.414 1.414 2.829 2.828-2.829 2.828 1.414 1.414 2.829-2.828 2.829 2.828 1.414-1.414-2.829-2.828 2.829-2.828z" fill="#ffffff" data-original="#000000" class=""/><path d="m31 32h2v2h-2z" fill="#ffffff" data-original="#000000" class=""/><path d="m31 36h2v2h-2z" fill="#ffffff" data-original="#000000" class=""/><path d="m31 40h2v2h-2z" fill="#ffffff" data-original="#000000" class=""/></g></svg>
