<?xml version="1.0" encoding="UTF-8" standalone="no"?>
<!DOCTYPE svg PUBLIC "-//W3C//DTD SVG 1.1//EN" "http://www.w3.org/Graphics/SVG/1.1/DTD/svg11.dtd">
<svg width="100%" height="100%" viewBox="0 0 400 370" version="1.1" xmlns="http://www.w3.org/2000/svg" xmlns:xlink="http://www.w3.org/1999/xlink" xml:space="preserve" xmlns:serif="http://www.serif.com/" style="fill-rule:evenodd;clip-rule:evenodd;stroke-linecap:round;stroke-linejoin:round;stroke-miterlimit:1.5;">
    <g transform="matrix(1,0,0,1,-100,-115)">
        <path d="M130.311,124.697L304.962,123.633L415.528,119.341L459.465,125.375L470.22,136.063L489.991,178.361L492.791,257.947L491.574,340.421L493.248,426.862L478.123,462.911L451.134,477.693L354.143,480.846L133.726,475.493L121.157,436.37L108.417,406.323L103.513,375.354L104.411,155.758L130.311,124.697Z" style="fill:white;stroke:black;stroke-width:1px;"/>
        <path d="M461.62,115L138.18,115C117.23,115.016 100,132.26 100,153.21C100,153.22 100,153.23 100,153.24L100,446.76C100,446.77 100,446.78 100,446.79C100,467.74 117.23,484.984 138.18,485L461.62,485C482.578,484.978 499.806,467.718 499.79,446.76L499.79,153.24C499.806,132.282 482.578,115.022 461.62,115M484.07,244.25L430.34,244.25L430.34,205.05C430.34,185.13 418.71,173.9 402.63,173.9C386.55,173.9 374.92,185.13 374.92,205.05L374.92,395C374.92,414.92 386.56,426.15 402.63,426.15C418.7,426.15 430.34,414.92 430.34,395L430.34,343.4L484.07,343.4L484.07,394.53C484.07,460.64 439.23,475.25 402.63,475.25C366.41,475.25 322.13,460.9 321.24,396.49C310.14,444.13 276.82,475.25 217.18,475.25C142.31,475.25 108.46,406.12 108.46,355.25C108.46,298.04 111,261.6 149.07,210.75C187.14,159.9 213.38,141.4 249.55,130.87L281.07,163.29C281.07,163.29 210.41,199.73 183.34,266.29C201.9,256.81 216.48,256.12 227.76,256.12C266.93,256.12 308.09,280.47 321.2,325.76L321.2,205.47C321.2,139.37 366.04,124.75 402.63,124.75C439.22,124.75 484.07,139.37 484.07,205.47L484.07,244.25Z" style="fill:rgb(1,194,182);fill-rule:nonzero;"/>
        <path d="M218.24,307.39C179.74,307.39 169.38,335.39 169.38,363.96C169.38,392.53 181.01,423.07 218.24,423.07C255.47,423.07 265,393.83 265,362.71C265,331.59 247.87,307.39 218.25,307.39" style="fill:rgb(1,194,182);fill-rule:nonzero;"/>
    </g>
</svg>
