<?xml version="1.0" encoding="UTF-8" standalone="no"?>
<!DOCTYPE svg PUBLIC "-//W3C//DTD SVG 1.1//EN" "http://www.w3.org/Graphics/SVG/1.1/DTD/svg11.dtd">
<svg width="100%" height="100%" viewBox="0 0 1000 1000" version="1.1" xmlns="http://www.w3.org/2000/svg" xmlns:xlink="http://www.w3.org/1999/xlink" xml:space="preserve" xmlns:serif="http://www.serif.com/" style="fill-rule:evenodd;clip-rule:evenodd;stroke-linejoin:round;stroke-miterlimit:2;">
    <g id="Layer_1">
        <g transform="matrix(1,0,0,1,-18.185,83.2078)">
            <path d="M842.5,10.9C847.3,16 851.9,21.2 856.8,26C873.6,42.6 890.6,59.1 907.5,75.6C909,77.1 910.3,78.8 912.4,81.2C909.7,82.2 908.1,82.9 906.4,83.3C881.8,89.3 857.3,95.4 832.6,101C826.9,102.3 824.4,105 823.1,110.5C816.2,141.8 809,173.1 802,204.3C792.5,246.4 782.9,288.5 773.4,330.6C764.5,370.1 755.6,409.6 746.6,449.1C746.1,451.4 745.3,453.5 744.6,455.8L743,455.8C742.4,454 741.7,452.2 741.2,450.4C734.4,422.9 727.5,395.3 720.7,367.8C713.5,338.7 706.4,309.5 699.1,280.4C697.6,274.5 697.6,268.8 698.9,262.8C708.9,219.1 718.8,175.4 728.6,131.7C735.7,100.2 742.7,68.7 749.5,37.2C750.6,31.9 753.2,29.8 758.4,28.8C783.2,23.8 807.9,18.5 832.6,13.2C834.3,12.8 835.8,11.6 837.4,10.8C839.2,10.9 840.9,10.9 842.5,10.9Z" style="fill-rule:nonzero;"/>
        </g>
        <g transform="matrix(1,0,0,1,-18.185,83.2078)">
            <path d="M356.8,216.6C354.7,217.2 352.6,217.9 350.5,218.4C306.7,229 263,239.6 219.2,250.2C218.4,250.4 217.6,250.6 216.8,250.8C213.2,252.1 212.6,253.1 213.8,256.8C216,263.2 218.3,269.6 220.6,276C234.7,315.7 248.8,355.4 262.9,395.1C278.2,438.3 293.6,481.5 308.9,524.7C328,578.4 347.1,632 366.1,685.7C381.1,727.9 396,770.2 411,812.4C411.8,814.6 412.4,816.9 413.1,819.2C409.6,821.2 407.7,819 405.8,817.8C394.4,810.8 383.2,803.6 371.8,796.5C354.1,785.3 336.4,774.1 318.5,763.1C314.2,760.5 311.6,757.2 309.8,752.4C296.2,715.6 282.4,678.8 268.6,642.1C242.6,572.8 216.7,503.5 190.7,434.2C176.4,396.1 162.1,358 147.9,319.8C133.4,280.9 119.1,241.9 104.2,203.2C100.5,193.5 92.6,174.1 92.6,174.1C92.6,174.1 89.4,169.1 94.4,168C110.1,164.7 125.8,161.5 141.5,158.2C164.8,153.3 188.2,148.4 211.5,143.4C225.6,140.4 239.7,137.6 253.7,134.5C258.8,133.4 262.7,134.6 266.7,137.9C291.9,159.3 317.3,180.6 342.5,202C347.5,206.2 352.3,210.6 357.2,214.8C357.1,215.5 356.9,216.1 356.8,216.6Z" style="fill-rule:nonzero;"/>
        </g>
        <g transform="matrix(1,0,0,1,-18.185,83.2078)">
            <path d="M465.7,551.8C462,549.2 461.9,545.9 461,543.1C454.8,523.7 448.8,504.3 442.7,484.8C430.9,447.1 419.1,409.5 407.2,371.8C406.1,368.3 406,365.1 406.9,361.6C420.4,307.8 433.8,253.9 447.1,200C455.7,164.9 464,129.7 472.3,94.5C473.3,90.3 475.2,88.2 479.4,87.3C506.8,81.7 534.1,75.9 561.5,70.2C567.7,68.9 574,67.7 580.2,66.1C584.4,65 587.5,65.7 590.7,68.9C612.6,90.3 634.6,111.6 656.6,132.9C659,135.3 661.5,137.7 664.8,140.9C662,142 660.3,143 658.5,143.4C639.5,148.1 620.6,152.6 601.6,157.3C591.6,159.7 581.7,162.3 571.6,164.5C567.9,165.3 566,167.3 565.1,170.9C553.3,216.5 541.4,262 529.6,307.6C518.6,349.8 507.6,391.9 496.6,434.1C486.9,471.5 477.2,508.9 467.5,546.3C467.1,548 466.5,549.5 465.7,551.8Z" style="fill-rule:nonzero;"/>
        </g>
        <g transform="matrix(1,0,0,1,-18.185,83.2078)">
            <path d="M608.5,379.7C609.7,381 610.4,381.5 610.6,382.2C638.1,482.9 665.5,583.6 693,684.3C693.2,685 692.7,685.8 692.4,687.6C690.1,686.4 688.1,685.6 686.4,684.4C667,669.2 647.6,653.9 628.3,638.7C623.8,635.1 619.4,631.4 614.7,628C611.1,625.5 609.1,622.3 608,618.1C601.5,594.3 594.9,570.5 588.3,546.8C585.2,535.5 582.1,524.2 578.9,513C577.6,508.3 577.4,503.9 578.6,499.1C588,461.2 597.2,423.3 606.5,385.3C606.8,383.6 607.6,382.1 608.5,379.7Z" style="fill-rule:nonzero;"/>
        </g>
        <g transform="matrix(1,0,0,1,-18.185,83.2078)">
            <path d="M606.1,378.9C607.3,380.2 608,380.7 608.2,381.4C635.6,481.8 663,582.3 690.3,682.8C690.5,683.5 690,684.3 689.7,686.1C687.4,684.9 685.4,684.1 683.8,682.9C664.4,667.7 645.1,652.5 625.8,637.3C621.3,633.7 616.9,630 612.3,626.7C608.8,624.2 606.7,621 605.6,616.9C599.2,593.2 592.5,569.5 586,545.8C582.9,534.5 579.8,523.3 576.6,512C575.3,507.4 575.1,502.9 576.3,498.1C585.7,460.3 594.8,422.4 604.1,384.6C604.5,382.8 605.2,381.2 606.1,378.9Z" style="fill-rule:nonzero;"/>
        </g>
        <g transform="matrix(1,0,0,1,-18.185,83.2078)">
            <circle cx="807.6" cy="645.5" r="74.6" style="fill:rgb(231,78,213);"/>
        </g>
    </g>
</svg>
