<?xml version="1.0" encoding="UTF-8" standalone="no"?>
<!DOCTYPE svg PUBLIC "-//W3C//DTD SVG 1.1//EN" "http://www.w3.org/Graphics/SVG/1.1/DTD/svg11.dtd">
<svg width="100%" height="100%" viewBox="0 0 436 113" version="1.1" xmlns="http://www.w3.org/2000/svg" xmlns:xlink="http://www.w3.org/1999/xlink" xml:space="preserve" xmlns:serif="http://www.serif.com/" style="fill-rule:evenodd;clip-rule:evenodd;stroke-linecap:round;stroke-linejoin:round;stroke-miterlimit:1.5;">
    <g transform="matrix(0.970053,0,0,0.970053,-123.353,-257.488)">
        <g>
            <g transform="matrix(1,0,0,1,-9,5)">
                <circle cx="522.891" cy="318.681" r="55.589" style="fill:rgb(0,51,153);stroke:white;stroke-width:3px;"/>
            </g>
            <g transform="matrix(1.02828,0,0,1.02828,93.589,141.523)">
                <g>
                    <g transform="matrix(1,0,0,1,36.156,200.836)">
                        <path d="M3.438,0L3.438,-45.5L19.781,-45.5C25.635,-45.5 30.089,-44.427 33.141,-42.281C36.193,-40.135 37.719,-37.021 37.719,-32.938C37.719,-30.583 37.177,-28.573 36.094,-26.906C35.01,-25.24 33.417,-24.01 31.313,-23.219C33.688,-22.594 35.51,-21.427 36.781,-19.719C38.052,-18.01 38.688,-15.927 38.688,-13.469C38.688,-9.01 37.276,-5.661 34.453,-3.422C31.63,-1.182 27.448,-0.042 21.906,0L3.438,0ZM14.406,-19.344L14.406,-8.438L21.594,-8.438C23.573,-8.438 25.094,-8.891 26.156,-9.797C27.219,-10.703 27.75,-11.979 27.75,-13.625C27.75,-17.417 25.865,-19.323 22.094,-19.344L14.406,-19.344ZM14.406,-26.531L20.125,-26.531C22.521,-26.552 24.229,-26.99 25.25,-27.844C26.271,-28.698 26.781,-29.958 26.781,-31.625C26.781,-33.542 26.229,-34.922 25.125,-35.766C24.021,-36.609 22.24,-37.031 19.781,-37.031L14.406,-37.031L14.406,-26.531Z" style="fill:white;fill-rule:nonzero;"/>
                        <path d="M56.5,-42.219L56.5,-33.813L62.063,-33.813L62.063,-26.5L56.5,-26.5L56.5,-11.031C56.5,-9.76 56.729,-8.875 57.188,-8.375C57.646,-7.875 58.552,-7.625 59.906,-7.625C60.948,-7.625 61.823,-7.688 62.531,-7.813L62.531,-0.281C60.635,0.323 58.656,0.625 56.594,0.625C52.969,0.625 50.292,-0.229 48.563,-1.938C46.833,-3.646 45.969,-6.24 45.969,-9.719L45.969,-26.5L41.656,-26.5L41.656,-33.813L45.969,-33.813L45.969,-42.219L56.5,-42.219Z" style="fill:white;fill-rule:nonzero;"/>
                    </g>
                    <g transform="matrix(1,0,0,1,98.469,200.836)">
                        <path d="M1.625,-17.219C1.625,-20.594 2.281,-23.599 3.594,-26.234C4.906,-28.87 6.792,-30.896 9.25,-32.313C11.708,-33.729 14.594,-34.438 17.906,-34.438C22.969,-34.438 26.958,-32.87 29.875,-29.734C32.792,-26.599 34.25,-22.333 34.25,-16.938L34.25,-16.563C34.25,-11.292 32.786,-7.109 29.859,-4.016C26.932,-0.922 22.969,0.625 17.969,0.625C13.156,0.625 9.292,-0.818 6.375,-3.703C3.458,-6.589 1.885,-10.5 1.656,-15.438L1.625,-17.219ZM12.156,-16.563C12.156,-13.438 12.646,-11.146 13.625,-9.688C14.604,-8.229 16.052,-7.5 17.969,-7.5C21.719,-7.5 23.635,-10.385 23.719,-16.156L23.719,-17.219C23.719,-23.281 21.781,-26.313 17.906,-26.313C14.385,-26.313 12.479,-23.698 12.188,-18.469L12.156,-16.563Z" style="fill:white;fill-rule:nonzero;"/>
                        <path d="M39.375,0L39.375,-45.5L55.719,-45.5C61.573,-45.5 66.026,-44.427 69.078,-42.281C72.13,-40.135 73.656,-37.021 73.656,-32.938C73.656,-30.583 73.115,-28.573 72.031,-26.906C70.948,-25.24 69.354,-24.01 67.25,-23.219C69.625,-22.594 71.448,-21.427 72.719,-19.719C73.99,-18.01 74.625,-15.927 74.625,-13.469C74.625,-9.01 73.214,-5.661 70.391,-3.422C67.568,-1.182 63.385,-0.042 57.844,0L39.375,0ZM50.344,-19.344L50.344,-8.438L57.531,-8.438C59.51,-8.438 61.031,-8.891 62.094,-9.797C63.156,-10.703 63.688,-11.979 63.688,-13.625C63.688,-17.417 61.802,-19.323 58.031,-19.344L50.344,-19.344ZM50.344,-26.531L56.063,-26.531C58.458,-26.552 60.167,-26.99 61.188,-27.844C62.208,-28.698 62.719,-29.958 62.719,-31.625C62.719,-33.542 62.167,-34.922 61.063,-35.766C59.958,-36.609 58.177,-37.031 55.719,-37.031L50.344,-37.031L50.344,-26.531Z" style="fill:white;fill-rule:nonzero;"/>
                        <path d="M104.125,-12.094C104.125,-13.698 103.557,-14.948 102.422,-15.844C101.286,-16.74 99.292,-17.667 96.438,-18.625C93.583,-19.583 91.25,-20.51 89.438,-21.406C83.542,-24.302 80.594,-28.281 80.594,-33.344C80.594,-35.865 81.328,-38.089 82.797,-40.016C84.266,-41.943 86.344,-43.443 89.031,-44.516C91.719,-45.589 94.74,-46.125 98.094,-46.125C101.365,-46.125 104.297,-45.542 106.891,-44.375C109.484,-43.208 111.5,-41.547 112.938,-39.391C114.375,-37.234 115.094,-34.771 115.094,-32L104.156,-32C104.156,-33.854 103.589,-35.292 102.453,-36.313C101.318,-37.333 99.781,-37.844 97.844,-37.844C95.885,-37.844 94.339,-37.411 93.203,-36.547C92.068,-35.682 91.5,-34.583 91.5,-33.25C91.5,-32.083 92.125,-31.026 93.375,-30.078C94.625,-29.13 96.823,-28.151 99.969,-27.141C103.115,-26.13 105.698,-25.042 107.719,-23.875C112.635,-21.042 115.094,-17.135 115.094,-12.156C115.094,-8.177 113.594,-5.052 110.594,-2.781C107.594,-0.51 103.479,0.625 98.25,0.625C94.563,0.625 91.224,-0.036 88.234,-1.359C85.245,-2.682 82.995,-4.495 81.484,-6.797C79.974,-9.099 79.219,-11.75 79.219,-14.75L90.219,-14.75C90.219,-12.313 90.849,-10.516 92.109,-9.359C93.37,-8.203 95.417,-7.625 98.25,-7.625C100.063,-7.625 101.495,-8.016 102.547,-8.797C103.599,-9.578 104.125,-10.677 104.125,-12.094Z" style="fill:white;fill-rule:nonzero;"/>
                        <path d="M139.281,0C138.906,-0.688 138.573,-1.698 138.281,-3.031C136.344,-0.594 133.635,0.625 130.156,0.625C126.969,0.625 124.26,-0.339 122.031,-2.266C119.802,-4.193 118.688,-6.615 118.688,-9.531C118.688,-13.198 120.042,-15.969 122.75,-17.844C125.458,-19.719 129.396,-20.656 134.563,-20.656L137.813,-20.656L137.813,-22.438C137.813,-25.542 136.469,-27.094 133.781,-27.094C131.281,-27.094 130.031,-25.865 130.031,-23.406L119.5,-23.406C119.5,-26.677 120.891,-29.333 123.672,-31.375C126.453,-33.417 130,-34.438 134.313,-34.438C138.625,-34.438 142.031,-33.385 144.531,-31.281C147.031,-29.177 148.313,-26.292 148.375,-22.625L148.375,-7.656C148.417,-4.552 148.896,-2.177 149.813,-0.531L149.813,0L139.281,0ZM132.688,-6.875C134,-6.875 135.089,-7.156 135.953,-7.719C136.818,-8.281 137.438,-8.917 137.813,-9.625L137.813,-15.031L134.75,-15.031C131.083,-15.031 129.25,-13.385 129.25,-10.094C129.25,-9.135 129.573,-8.359 130.219,-7.766C130.865,-7.172 131.688,-6.875 132.688,-6.875Z" style="fill:white;fill-rule:nonzero;"/>
                        <rect x="154.75" y="-48" width="10.563" height="48" style="fill:white;"/>
                        <path d="M188.156,0.625C182.969,0.625 178.771,-0.922 175.563,-4.016C172.354,-7.109 170.75,-11.135 170.75,-16.094L170.75,-16.969C170.75,-20.427 171.391,-23.479 172.672,-26.125C173.953,-28.771 175.823,-30.818 178.281,-32.266C180.74,-33.714 183.656,-34.438 187.031,-34.438C191.781,-34.438 195.531,-32.964 198.281,-30.016C201.031,-27.068 202.406,-22.958 202.406,-17.688L202.406,-13.594L181.469,-13.594C181.844,-11.698 182.667,-10.208 183.938,-9.125C185.208,-8.042 186.854,-7.5 188.875,-7.5C192.208,-7.5 194.813,-8.667 196.688,-11L201.5,-5.313C200.188,-3.5 198.328,-2.057 195.922,-0.984C193.516,0.089 190.927,0.625 188.156,0.625ZM186.969,-26.313C183.885,-26.313 182.052,-24.271 181.469,-20.188L192.094,-20.188L192.094,-21C192.135,-22.688 191.708,-23.995 190.813,-24.922C189.917,-25.849 188.635,-26.313 186.969,-26.313Z" style="fill:white;fill-rule:nonzero;"/>
                        <path d="M224.344,-9.5C224.344,-10.396 223.875,-11.115 222.938,-11.656C222,-12.198 220.219,-12.76 217.594,-13.344C214.969,-13.927 212.802,-14.693 211.094,-15.641C209.385,-16.589 208.083,-17.74 207.188,-19.094C206.292,-20.448 205.844,-22 205.844,-23.75C205.844,-26.854 207.125,-29.411 209.688,-31.422C212.25,-33.432 215.604,-34.438 219.75,-34.438C224.208,-34.438 227.792,-33.427 230.5,-31.406C233.208,-29.385 234.563,-26.729 234.563,-23.438L224,-23.438C224,-26.146 222.573,-27.5 219.719,-27.5C218.615,-27.5 217.688,-27.193 216.938,-26.578C216.188,-25.964 215.813,-25.198 215.813,-24.281C215.813,-23.344 216.271,-22.583 217.188,-22C218.104,-21.417 219.568,-20.938 221.578,-20.563C223.589,-20.188 225.354,-19.74 226.875,-19.219C231.958,-17.469 234.5,-14.333 234.5,-9.813C234.5,-6.729 233.13,-4.219 230.391,-2.281C227.651,-0.344 224.104,0.625 219.75,0.625C216.854,0.625 214.271,0.104 212,-0.938C209.729,-1.979 207.958,-3.396 206.688,-5.188C205.417,-6.979 204.781,-8.865 204.781,-10.844L214.625,-10.844C214.667,-9.281 215.188,-8.141 216.188,-7.422C217.188,-6.703 218.469,-6.344 220.031,-6.344C221.469,-6.344 222.547,-6.635 223.266,-7.219C223.984,-7.802 224.344,-8.563 224.344,-9.5Z" style="fill:white;fill-rule:nonzero;"/>
                        <path d="M245.938,-10.219C247.604,-10.219 248.99,-9.724 250.094,-8.734C251.198,-7.745 251.75,-6.479 251.75,-4.938C251.75,-3.396 251.198,-2.13 250.094,-1.141C248.99,-0.151 247.604,0.344 245.938,0.344C244.25,0.344 242.859,-0.156 241.766,-1.156C240.672,-2.156 240.125,-3.417 240.125,-4.938C240.125,-6.458 240.672,-7.719 241.766,-8.719C242.859,-9.719 244.25,-10.219 245.938,-10.219Z" style="fill:white;fill-rule:nonzero;"/>
                    </g>
                </g>
                <g transform="matrix(1,0,0,1,370.219,200.836)">
                    <path d="M31.656,-19.281L14.406,-19.281L14.406,-8.438L34.781,-8.438L34.781,0L3.438,0L3.438,-45.5L34.844,-45.5L34.844,-37.031L14.406,-37.031L14.406,-27.438L31.656,-27.438L31.656,-19.281Z" style="fill:rgb(255,204,0);fill-rule:nonzero;"/>
                    <path d="M74.938,-45.5L74.938,-15.719C74.938,-12.344 74.219,-9.422 72.781,-6.953C71.344,-4.484 69.281,-2.604 66.594,-1.313C63.906,-0.021 60.729,0.625 57.063,0.625C51.521,0.625 47.156,-0.813 43.969,-3.688C40.781,-6.563 39.156,-10.5 39.094,-15.5L39.094,-45.5L50.125,-45.5L50.125,-15.281C50.25,-10.302 52.563,-7.813 57.063,-7.813C59.333,-7.813 61.052,-8.438 62.219,-9.688C63.385,-10.938 63.969,-12.969 63.969,-15.781L63.969,-45.5L74.938,-45.5Z" style="fill:rgb(255,204,0);fill-rule:nonzero;"/>
                </g>
            </g>
        </g>
    </g>
</svg>
