<?xml version="1.0" encoding="UTF-8" standalone="no"?>
<!DOCTYPE svg PUBLIC "-//W3C//DTD SVG 1.1//EN" "http://www.w3.org/Graphics/SVG/1.1/DTD/svg11.dtd">
<svg width="100%" height="100%" viewBox="0 0 520 96" version="1.1" xmlns="http://www.w3.org/2000/svg" xmlns:xlink="http://www.w3.org/1999/xlink" xml:space="preserve" xmlns:serif="http://www.serif.com/" style="fill-rule:evenodd;clip-rule:evenodd;stroke-miterlimit:10;">
    <g transform="matrix(1,0,0,1,-44.3573,-62.2757)">
        <g transform="matrix(0.174301,0,0,0.174301,514.07,110.001)">
            <g transform="matrix(1,0,0,1,-286.875,-273.81)">
                <clipPath id="_clip1">
                    <rect x="0" y="0" width="573.75" height="547.62"/>
                </clipPath>
                <g clip-path="url(#_clip1)">
                    <path d="M328.92,198.35L370.74,145.64L394,167.43L357.48,218.97L318.02,226.33L328.92,198.35Z" style="fill:white;fill-rule:nonzero;"/>
                    <path d="M376.33,306.43L419.03,343.53L390.76,357.67L348.06,335.87L365.14,321.44L376.33,306.43Z" style="fill:white;fill-rule:nonzero;"/>
                    <path d="M333.93,336.46L387.81,367.09L421.68,484L398.71,516.68L285.34,359.14L306.24,351.78L316.26,342.94L327.15,333.81L333.93,336.46Z" style="fill:white;fill-rule:nonzero;"/>
                    <path d="M261.48,322.33L300.06,410.67L236.16,534.35L209.95,497.54L218.19,399.19L261.48,322.33Z" style="fill:white;fill-rule:nonzero;"/>
                    <path d="M241.75,327.92L220.55,326.75L199.94,380.93L219.37,383.87L238.22,362.97L249.12,335.58L252.35,328.22L241.75,327.92Z" style="fill:white;fill-rule:nonzero;"/>
                    <path d="M99.81,410.38L185.51,287.29L218.49,319.09L155.47,415.38L113.07,423.33L99.81,410.38Z" style="fill:white;fill-rule:nonzero;"/>
                    <path d="M155.47,176.86L173.14,161.25L152.23,87.33L166.37,60L187.27,70.3C187.27,70.3 210.54,106.82 214.66,107.41C218.78,108 240.58,142.16 241.46,142.41C242.34,142.66 270.91,156.55 270.91,156.55L295.91,81.45C295.91,81.45 322.15,34.92 322.15,34C322.15,33.08 335.15,9.86 335.15,9.86L355.77,27.53L367.25,110.53L357.83,142.04L349.53,163L324.21,200.69L293,193.35L270.92,193.05L263.26,198.05L257.96,208.65L254.71,221L228.21,221.29L208.77,230.13L143.69,189.49L155.47,176.86Z" style="fill:white;fill-rule:nonzero;"/>
                    <path d="M30.79,231.92L132.37,206.22L182.55,213.97L198.46,228.25L204.17,262.52L167.86,282.92L63.42,274.35L14.06,264.56L16.51,238.45L30.79,231.92Z" style="fill:white;fill-rule:nonzero;"/>
                    <path d="M427.33,144.62L474.65,114.83L489.34,146.66L471.39,202.55L380.41,268.64L359.2,222.13L427.74,142.99L427.33,144.62Z" style="fill:white;fill-rule:nonzero;"/>
                    <path d="M450.58,258.03L557.06,311.47L556.24,334.73L467.31,336.77L395.1,320.04L380,292.3L394.28,265.37L450.58,258.03Z" style="fill:white;fill-rule:nonzero;"/>
                    <path d="M238.23,258.82C242.088,258.011 245.535,255.855 247.95,252.74C249.17,251.53 248.56,250.92 246.73,251.53C245.269,252.026 243.848,252.635 242.48,253.35C240.868,253.903 239.175,254.185 237.47,254.185C230.879,254.185 224.981,249.967 222.85,243.73C222.574,242.929 222.367,242.106 222.23,241.27C222.128,239.426 222.331,237.578 222.83,235.8C222.83,233.98 221.62,233.98 221.01,235.19C219.731,238.28 219,241.569 218.85,244.91C218.847,245.024 218.846,245.138 218.846,245.253C218.846,253.174 225.364,259.693 233.286,259.693C234.972,259.693 236.646,259.397 238.23,258.82Z" style="fill-rule:nonzero;stroke:white;stroke-width:2.77px;"/>
                    <path d="M252.81,306.08C251.654,307.171 250.147,307.817 248.56,307.9C246.782,308.402 244.934,308.608 243.09,308.51C235.827,308.744 229.612,303.074 229.18,295.82C228.56,294.05 228.56,292.12 229.18,290.35C229.18,288.53 227.97,288.53 227.36,290.35C225.91,293.179 225.081,296.285 224.93,299.46C224.929,299.524 224.929,299.587 224.929,299.651C224.929,307.88 231.7,314.651 239.929,314.651C241.41,314.651 242.883,314.432 244.3,314C247.941,312.702 251.253,310.62 254,307.9C255.24,306.08 254.63,305.47 252.81,306.08Z" style="fill-rule:nonzero;stroke:white;stroke-width:2.77px;"/>
                    <path d="M486.08,248.56C476.4,244.907 467.4,241.867 459.08,239.44C463.33,233.98 468.19,227.9 472.58,221.28C489.53,196.44 502.29,161.87 502.29,137.09C502.729,128.493 500.359,119.983 495.54,112.85C490.883,106.062 483.181,101.974 474.95,101.92C468.431,102.15 462.116,104.262 456.77,108C449.054,113.066 441.764,118.751 434.97,125C426.46,131.75 415.59,138.5 401.21,148.63C396.886,142.794 390.28,139.062 383.05,138.37C384.26,129.86 385.48,120.81 386.05,110.48C389.05,66.87 373.29,12.92 350.26,3.88C346.843,2.329 343.142,1.502 339.39,1.45C328.378,2.19 318.616,8.914 314,18.94L308.8,29.81L303.33,44.93C298.47,56.48 291.79,69.17 285.17,83.69C278.589,98.277 272.951,113.271 268.29,128.58C244.66,101.58 233.79,96.45 212.59,74.03C196.86,57.09 187.75,43.72 171.41,43.72C153.25,43.72 142.31,61.88 142.31,86.12C143.427,112.177 149.812,137.739 161.08,161.26C140.82,165.52 134.08,176.39 134.08,187.93C134.059,190.412 134.472,192.88 135.3,195.22C69.3,195.22 1.42,224.93 1.42,255.99C1.42,278.99 17.15,285.08 40.17,287.51C73.93,291.16 110.45,306.89 148.6,308.11C127.4,335.99 122.54,353.54 106.81,379.61C98.3,393.51 91.68,400.8 91.68,411.13C91.68,427.47 102.62,437.2 118.68,437.2C142.92,437.2 180.46,419.03 205.91,399.66C199.441,421.079 195.965,443.289 195.58,465.66C195.58,509.88 208.34,546.2 234.33,546.2C250.67,546.2 254.59,536.55 269.44,506.84C289.69,465.66 296.44,470.52 313.05,429.84C329.73,454.15 346.74,467.65 359.44,488.99C370.98,508.36 381.85,524.09 399.44,524.09C418.81,524.09 430.36,500.46 430.36,471.37C429.984,434.942 420.715,399.151 403.36,367.12C417.27,365.3 428.21,360.37 431.85,344.12C444.695,345.929 457.64,346.931 470.61,347.12C505.78,347.12 528.13,350.76 543.32,350.76C560.32,350.76 572.42,342.26 572.42,324.1C572.42,297.43 527.59,263.33 486.42,248.34L486.08,248.56ZM453.33,144.32C462.45,134.59 469.06,124.06 473.59,124.06C478.12,124.06 479.05,128.31 479.05,133.78C479.05,177.4 406.34,250.11 385.14,250.11C381.49,250.11 380.28,247.68 383.32,244.03C387.999,239.108 391.333,233.063 393,226.48C393,224.05 392.39,222.84 390.57,222.84C385.1,222.84 374.84,231.34 369.98,236.34L368.15,232.69C378.48,188.47 430.54,168.49 453.56,144.25L453.33,144.32ZM343.69,283.06C343.899,283.054 344.108,283.051 344.318,283.051C356.712,283.051 366.991,293.07 367.31,305.46L367.31,305.68C366.906,317.188 357.108,326.326 345.6,325.93L345.5,325.93C332.875,326.578 321.944,316.743 321.26,304.12C321.604,292.704 331.089,283.5 342.51,283.5C342.727,283.5 342.944,283.503 343.16,283.51L343.68,283.51L343.69,283.06ZM319.45,246.13C319.065,235.397 327.577,226.248 338.31,225.86L340.04,225.86C352.149,225.754 362.232,235.562 362.46,247.67C362.449,258.327 353.677,267.09 343.02,267.09C343.013,267.09 343.007,267.09 343,267.09L341.88,267.09C329.982,267.241 319.979,257.778 319.47,245.89L319.45,246.13ZM375.22,316.41C384.94,317.63 401.88,335.18 401.28,344.9C386.755,344.891 372.506,340.899 360.09,333.36C367.175,329.936 372.62,323.837 375.22,316.41ZM368.46,159.51C368.46,159.51 373.33,161.94 373.33,171.05C373.33,185.57 355.16,210.41 343.62,217.05C342.701,216.559 341.658,216.347 340.62,216.44C338.778,216.398 336.938,216.603 335.15,217.05C332.635,217.578 330.189,218.394 327.86,219.48C336.37,201.32 361.62,176.48 368.37,159.48L368.46,159.51ZM335.18,22.11C340.65,22.11 346.72,30.01 346.72,58.44C346.72,97.19 333.22,166.87 321.27,185.09C319.197,181.188 318.163,176.817 318.27,172.4C318.27,162.68 321.27,149.4 321.27,136.01C321.27,126.9 320.06,123.93 318.27,123.93C315.27,123.93 302.54,159.1 302.54,192.99C297.618,190.471 292.295,188.827 286.81,188.13C284.881,183.549 284.049,178.58 284.38,173.62C284.38,123.32 321.31,71.2 335.29,22.11L335.18,22.11ZM284.27,197.65C296.97,197.65 307.9,205.55 307.9,217.03C307.903,217.182 307.905,217.333 307.905,217.485C307.905,228.422 299.044,237.484 288.11,237.73C287.235,237.748 286.36,237.712 285.49,237.62C284.905,237.667 284.318,237.691 283.731,237.691C272.355,237.691 262.772,228.84 261.87,217.5L261.87,217.37C262.13,205.966 271.726,196.795 283.13,197.05C283.52,197.05 283.9,197.05 284.28,197.11L284.27,197.65ZM288.53,244.31C305.449,244.392 319.337,258.311 319.38,275.23C318.83,290.339 306.002,302.347 290.89,301.9C290.364,301.927 289.837,301.941 289.311,301.941C273.114,301.941 259.58,289.076 258.76,272.9L258.76,272.76C259.325,256.874 272.634,244.154 288.53,244.31ZM261.53,303.04C261.533,303.175 261.534,303.309 261.534,303.444C261.534,314.403 252.637,323.476 241.68,323.69C241.03,323.69 240.37,323.69 239.68,323.64C239.468,323.646 239.255,323.649 239.042,323.649C226.648,323.649 216.369,313.63 216.05,301.24C216.739,289.296 227.103,280.018 239.05,280.65C251.194,281.005 261.1,290.858 261.52,303L261.53,303.04ZM171,183.07C184.91,183.07 194,188.54 206.11,192.79C183.7,164.91 164.93,124.33 164.93,85.58C164.93,72.88 167.93,68.58 171,66.81C195.85,121.36 250.4,149.18 257,201.81C254.6,205.645 253.14,209.994 252.74,214.5C240.086,211.49 228.529,204.986 219.39,195.73C216.96,193.3 215.14,193.91 215.14,196.95C216.432,205.144 221.019,212.464 227.83,217.2C222.015,217.802 216.522,220.176 212.1,224C194.55,216.1 178.34,197.33 157.55,187.61C161.233,184.329 166.152,182.781 171.05,183.36L171,183.07ZM66.2,258.42C52.595,257.833 38.972,259.057 25.69,262.06C23.921,260.839 22.98,258.722 23.26,256.59C23.26,236.34 89.26,217.84 146.26,217.84C179.55,217.84 188.05,226.95 188.05,226.95C178.94,226.95 147.55,226.95 147.55,232.42C147.55,243.36 196.63,242.75 196.63,254.23C196.63,261.52 178.47,269.35 154.23,269.35C128.17,269.35 93.06,258.48 66.46,258.48L66.2,258.42ZM120.2,412.89C117.804,412.972 115.52,411.843 114.13,409.89C146.26,369.89 157.13,309.89 197.13,309.89C203.88,309.89 206.25,313.54 206.25,318.4C206.23,351.65 142,412.89 120.21,412.89L120.2,412.89ZM232.83,226.14C245.154,225.857 255.532,235.756 255.83,248.08L255.83,248.56C255.623,259.879 246.149,269.028 234.83,268.84L234.05,268.84C233.685,268.858 233.319,268.867 232.954,268.867C220.997,268.867 211.015,259.353 210.44,247.41L210.44,247.04C210.797,235.379 220.679,226.075 232.34,226.42L232.86,226.42L232.83,226.14ZM214.26,367.25C214.26,358.74 224.59,352.13 227.76,332.14C232.578,333.976 237.771,334.615 242.89,334C242.89,349.73 231.34,372.75 217.43,377C215.019,374.36 213.862,370.803 214.26,367.25ZM233.64,522.94C228.78,522.94 223.31,509.03 223.31,476.89C223.31,404.79 249.37,382.98 261.45,337.54C262.998,344.464 266.858,350.658 272.39,355.1C272.39,357.53 273,360.57 273,364.21C273,373.93 270,382.98 270,388.45C270.119,390.048 271.402,391.331 273,391.45C277.25,391.45 279.75,381.73 283.87,381.73C285.69,381.73 286.3,384.16 286.3,388.48C286.3,435.74 238.43,484.82 233.57,522.97L233.64,522.94ZM269.35,329C269.707,317.339 279.589,308.035 291.25,308.38L291.77,308.38C292.027,308.371 292.284,308.367 292.541,308.367C304.888,308.367 315.145,318.309 315.53,330.65L315.53,330.87C315.126,342.378 305.328,351.516 293.82,351.12L293.73,351.12C281.105,351.768 270.174,341.933 269.49,329.31L269.35,329ZM405.46,481.82C405.46,494.52 401.82,505.45 396.35,505.45C391.573,494.952 385.686,484.995 378.79,475.75C350.91,434.56 312.16,404.25 305.47,359.69C312.99,356.829 319.051,351.059 322.28,343.69C340.45,343.69 341.05,360.63 347.13,360.63C350.13,360.63 350.13,352.73 353.21,352.73C367.11,352.73 405.33,437.53 405.33,481.82L405.46,481.82ZM546.64,329.71C518.538,325.932 490.189,324.308 461.84,324.85C421.33,324.85 391.55,313.91 391.55,306.08C391.55,300.61 412.15,302.44 412.15,298.18C412.15,292.11 394.59,290.28 394.59,282.45C394.59,278.81 398.85,273.34 418.83,273.34C481.83,273.34 549.07,303.04 549.07,323.64C549.07,328.5 546.64,329.71 546.64,329.71Z" style="fill-rule:nonzero;stroke:white;stroke-width:2.77px;"/>
                    <path d="M349.29,316.41C352.759,315.122 355.879,313.039 358.4,310.33C360.23,308.51 359.01,307.9 357.19,308.51C356.004,309.67 354.541,310.507 352.94,310.94C351.375,311.483 349.729,311.76 348.072,311.76C341.76,311.76 336.106,307.735 334.04,301.77C333.718,300.845 333.491,299.89 333.36,298.92L333.36,293.46C333.96,291.63 332.75,291.03 331.53,292.85C329.783,296.395 328.915,300.309 329,304.26C330.221,311.7 336.716,317.216 344.256,317.216C345.118,317.216 345.979,317.144 346.83,317C347.667,316.861 348.49,316.65 349.29,316.37L349.29,316.41Z" style="fill-rule:nonzero;stroke:white;stroke-width:2.77px;"/>
                    <path d="M356,251.66C357.82,250.45 356.61,249.84 354.79,250.45C353.418,251.163 351.994,251.771 350.53,252.27C349.025,252.769 347.449,253.023 345.864,253.023C339.475,253.023 333.771,248.897 331.77,242.83C331.483,241.971 331.279,241.087 331.16,240.19L331.16,234.72C331.76,232.9 330.55,232.9 329.33,234.11C327.66,237.728 326.829,241.676 326.9,245.66C327.726,252.902 333.931,258.431 341.22,258.42C343.061,258.518 344.906,258.312 346.68,257.81C350.448,257.005 353.778,254.808 356,251.66Z" style="fill-rule:nonzero;stroke:white;stroke-width:2.77px;"/>
                    <path d="M306.08,334.57C304.707,335.699 302.997,336.343 301.22,336.4C299.643,336.863 298.002,337.066 296.36,337C288.971,337.154 282.606,331.584 281.78,324.24L281.78,319.18C282.38,317.36 281.17,316.75 279.95,318.57C278.771,321.038 278.15,323.735 278.13,326.47C278.103,326.832 278.089,327.196 278.089,327.559C278.089,335.188 284.052,341.603 291.66,342.16L292.66,342.16C294.304,342.258 295.952,342.051 297.52,341.55C301.173,340.589 304.519,338.709 307.24,336.09C308.45,334.26 307.85,333.65 306.02,334.26L306.08,334.57Z" style="fill-rule:nonzero;stroke:white;stroke-width:2.77px;"/>
                    <path d="M291,229.72C294.644,228.429 297.961,226.357 300.72,223.65C301.93,221.82 301.33,221.21 299.5,221.82C298.344,222.912 296.838,223.561 295.25,223.65C293.471,224.144 291.624,224.347 289.78,224.25C282.517,224.484 276.302,218.814 275.87,211.56C275.26,209.788 275.26,207.862 275.87,206.09C275.87,204.27 274.66,204.27 274.05,206.09C272.608,208.925 271.78,212.033 271.62,215.21C271.526,223.428 278.202,230.271 286.42,230.38C287.972,230.401 289.517,230.179 291,229.72Z" style="fill-rule:nonzero;stroke:white;stroke-width:2.77px;"/>
                    <path d="M291,291.57C292.844,291.663 294.691,291.457 296.47,290.96C301.265,289.928 305.599,287.37 308.82,283.67C310.64,281.84 309.43,280.67 307,281.84C305.279,282.721 303.435,283.338 301.53,283.67C299.539,284.139 297.494,284.341 295.45,284.27C285.338,284.872 276.393,277.39 275.2,267.33C274.601,264.937 274.601,262.433 275.2,260.04C275.2,257.61 273.38,257.04 272.2,259.43C270.809,263.342 269.99,267.434 269.77,271.58C269.759,282.691 278.889,291.844 290,291.86L291,291.86L291,291.57Z" style="fill-rule:nonzero;stroke:white;stroke-width:2.77px;"/>
                </g>
            </g>
        </g>
        <g transform="matrix(1.02828,0,0,1.02828,3.64393,-71.4857)">
            <g transform="matrix(64,0,0,64,36.1563,200.836)">
                <path d="M0.054,-0L0.054,-0.711L0.309,-0.711C0.401,-0.711 0.47,-0.694 0.518,-0.661C0.566,-0.627 0.589,-0.578 0.589,-0.515C0.589,-0.478 0.581,-0.446 0.564,-0.42C0.547,-0.394 0.522,-0.375 0.489,-0.363C0.526,-0.353 0.555,-0.335 0.575,-0.308C0.595,-0.281 0.604,-0.249 0.604,-0.21C0.604,-0.141 0.582,-0.088 0.538,-0.053C0.494,-0.018 0.429,-0.001 0.342,-0L0.054,-0ZM0.225,-0.302L0.225,-0.132L0.337,-0.132C0.368,-0.132 0.392,-0.139 0.409,-0.153C0.425,-0.167 0.434,-0.187 0.434,-0.213C0.434,-0.272 0.404,-0.302 0.345,-0.302L0.225,-0.302ZM0.225,-0.415L0.314,-0.415C0.352,-0.415 0.379,-0.422 0.395,-0.435C0.41,-0.448 0.418,-0.468 0.418,-0.494C0.418,-0.524 0.41,-0.546 0.393,-0.559C0.375,-0.572 0.347,-0.579 0.309,-0.579L0.225,-0.579L0.225,-0.415Z" style="fill-rule:nonzero;"/>
            </g>
            <g transform="matrix(64,0,0,64,77.4375,200.836)">
                <path d="M0.238,-0.66L0.238,-0.528L0.325,-0.528L0.325,-0.414L0.238,-0.414L0.238,-0.172C0.238,-0.153 0.241,-0.139 0.249,-0.131C0.256,-0.123 0.27,-0.119 0.291,-0.119C0.307,-0.119 0.321,-0.12 0.332,-0.122L0.332,-0.004C0.302,0.005 0.271,0.01 0.239,0.01C0.183,0.01 0.141,-0.004 0.114,-0.03C0.087,-0.057 0.073,-0.097 0.073,-0.152L0.073,-0.414L0.006,-0.414L0.006,-0.528L0.073,-0.528L0.073,-0.66L0.238,-0.66Z" style="fill-rule:nonzero;"/>
            </g>
            <g transform="matrix(64,0,0,64,98.4688,200.836)">
                <path d="M0.025,-0.269C0.025,-0.322 0.036,-0.369 0.056,-0.41C0.077,-0.451 0.106,-0.483 0.145,-0.505C0.183,-0.527 0.228,-0.538 0.28,-0.538C0.359,-0.538 0.421,-0.514 0.467,-0.465C0.512,-0.416 0.535,-0.349 0.535,-0.265L0.535,-0.259C0.535,-0.176 0.512,-0.111 0.467,-0.063C0.421,-0.014 0.359,0.01 0.281,0.01C0.206,0.01 0.145,-0.013 0.1,-0.058C0.054,-0.103 0.029,-0.164 0.026,-0.241L0.025,-0.269ZM0.19,-0.259C0.19,-0.21 0.198,-0.174 0.213,-0.151C0.228,-0.129 0.251,-0.117 0.281,-0.117C0.339,-0.117 0.369,-0.162 0.371,-0.252L0.371,-0.269C0.371,-0.364 0.34,-0.411 0.28,-0.411C0.225,-0.411 0.195,-0.37 0.19,-0.289L0.19,-0.259Z" style="fill-rule:nonzero;"/>
            </g>
            <g transform="matrix(64,0,0,64,134.406,200.836)">
                <path d="M0.054,-0L0.054,-0.711L0.309,-0.711C0.401,-0.711 0.47,-0.694 0.518,-0.661C0.566,-0.627 0.589,-0.578 0.589,-0.515C0.589,-0.478 0.581,-0.446 0.564,-0.42C0.547,-0.394 0.522,-0.375 0.489,-0.363C0.526,-0.353 0.555,-0.335 0.575,-0.308C0.595,-0.281 0.604,-0.249 0.604,-0.21C0.604,-0.141 0.582,-0.088 0.538,-0.053C0.494,-0.018 0.429,-0.001 0.342,-0L0.054,-0ZM0.225,-0.302L0.225,-0.132L0.337,-0.132C0.368,-0.132 0.392,-0.139 0.409,-0.153C0.425,-0.167 0.434,-0.187 0.434,-0.213C0.434,-0.272 0.404,-0.302 0.345,-0.302L0.225,-0.302ZM0.225,-0.415L0.314,-0.415C0.352,-0.415 0.379,-0.422 0.395,-0.435C0.41,-0.448 0.418,-0.468 0.418,-0.494C0.418,-0.524 0.41,-0.546 0.393,-0.559C0.375,-0.572 0.347,-0.579 0.309,-0.579L0.225,-0.579L0.225,-0.415Z" style="fill-rule:nonzero;"/>
            </g>
            <g transform="matrix(64,0,0,64,175.688,200.836)">
                <path d="M0.42,-0.189C0.42,-0.214 0.412,-0.234 0.394,-0.248C0.376,-0.262 0.345,-0.276 0.3,-0.291C0.256,-0.306 0.219,-0.32 0.191,-0.334C0.099,-0.38 0.053,-0.442 0.053,-0.521C0.053,-0.56 0.064,-0.595 0.087,-0.625C0.11,-0.655 0.143,-0.679 0.185,-0.696C0.227,-0.712 0.274,-0.721 0.326,-0.721C0.377,-0.721 0.423,-0.712 0.464,-0.693C0.504,-0.675 0.536,-0.649 0.558,-0.615C0.581,-0.582 0.592,-0.543 0.592,-0.5L0.421,-0.5C0.421,-0.529 0.412,-0.551 0.394,-0.567C0.377,-0.583 0.353,-0.591 0.322,-0.591C0.292,-0.591 0.267,-0.585 0.25,-0.571C0.232,-0.558 0.223,-0.54 0.223,-0.52C0.223,-0.501 0.233,-0.485 0.252,-0.47C0.272,-0.455 0.306,-0.44 0.355,-0.424C0.405,-0.408 0.445,-0.391 0.477,-0.373C0.553,-0.329 0.592,-0.268 0.592,-0.19C0.592,-0.128 0.568,-0.079 0.521,-0.043C0.475,-0.008 0.41,0.01 0.329,0.01C0.271,0.01 0.219,-0.001 0.172,-0.021C0.125,-0.042 0.09,-0.07 0.067,-0.106C0.043,-0.142 0.031,-0.184 0.031,-0.23L0.203,-0.23C0.203,-0.192 0.213,-0.164 0.233,-0.146C0.252,-0.128 0.284,-0.119 0.329,-0.119C0.357,-0.119 0.379,-0.125 0.396,-0.137C0.412,-0.15 0.42,-0.167 0.42,-0.189Z" style="fill-rule:nonzero;"/>
            </g>
            <g transform="matrix(64,0,0,64,215.75,200.836)">
                <path d="M0.344,-0C0.338,-0.011 0.333,-0.027 0.328,-0.047C0.298,-0.009 0.256,0.01 0.201,0.01C0.151,0.01 0.109,-0.005 0.074,-0.035C0.039,-0.066 0.022,-0.103 0.022,-0.149C0.022,-0.206 0.043,-0.25 0.085,-0.279C0.128,-0.308 0.189,-0.323 0.27,-0.323L0.321,-0.323L0.321,-0.351C0.321,-0.399 0.3,-0.423 0.258,-0.423C0.219,-0.423 0.199,-0.404 0.199,-0.366L0.035,-0.366C0.035,-0.417 0.056,-0.458 0.1,-0.49C0.143,-0.522 0.199,-0.538 0.266,-0.538C0.333,-0.538 0.387,-0.522 0.426,-0.489C0.465,-0.456 0.485,-0.411 0.486,-0.354L0.486,-0.12C0.486,-0.071 0.494,-0.034 0.508,-0.008L0.508,-0L0.344,-0ZM0.241,-0.107C0.261,-0.107 0.278,-0.112 0.292,-0.121C0.305,-0.129 0.315,-0.139 0.321,-0.15L0.321,-0.235L0.273,-0.235C0.216,-0.235 0.187,-0.209 0.187,-0.158C0.187,-0.143 0.192,-0.131 0.202,-0.121C0.212,-0.112 0.225,-0.107 0.241,-0.107Z" style="fill-rule:nonzero;"/>
            </g>
            <g transform="matrix(64,0,0,64,249.719,200.836)">
                <rect x="0.055" y="-0.75" width="0.165" height="0.75" style="fill-rule:nonzero;"/>
            </g>
            <g transform="matrix(64,0,0,64,267.313,200.836)">
                <path d="M0.302,0.01C0.221,0.01 0.155,-0.014 0.105,-0.063C0.055,-0.111 0.03,-0.174 0.03,-0.251L0.03,-0.265C0.03,-0.319 0.04,-0.367 0.06,-0.408C0.08,-0.45 0.109,-0.482 0.147,-0.504C0.186,-0.527 0.231,-0.538 0.284,-0.538C0.358,-0.538 0.417,-0.515 0.46,-0.469C0.503,-0.423 0.524,-0.359 0.524,-0.276L0.524,-0.212L0.197,-0.212C0.203,-0.183 0.216,-0.16 0.236,-0.143C0.256,-0.126 0.281,-0.117 0.313,-0.117C0.365,-0.117 0.406,-0.135 0.435,-0.172L0.51,-0.083C0.49,-0.055 0.461,-0.032 0.423,-0.015C0.385,0.001 0.345,0.01 0.302,0.01ZM0.283,-0.411C0.235,-0.411 0.206,-0.379 0.197,-0.315L0.363,-0.315L0.363,-0.328C0.364,-0.354 0.357,-0.375 0.343,-0.389C0.329,-0.404 0.309,-0.411 0.283,-0.411Z" style="fill-rule:nonzero;"/>
            </g>
            <g transform="matrix(64,0,0,64,302.156,200.836)">
                <path d="M0.323,-0.148C0.323,-0.162 0.315,-0.174 0.301,-0.182C0.286,-0.191 0.258,-0.199 0.217,-0.208C0.176,-0.218 0.142,-0.23 0.116,-0.244C0.089,-0.259 0.069,-0.277 0.055,-0.298C0.041,-0.319 0.034,-0.344 0.034,-0.371C0.034,-0.42 0.054,-0.46 0.094,-0.491C0.134,-0.522 0.186,-0.538 0.251,-0.538C0.321,-0.538 0.377,-0.522 0.419,-0.491C0.461,-0.459 0.482,-0.418 0.482,-0.366L0.317,-0.366C0.317,-0.409 0.295,-0.43 0.25,-0.43C0.233,-0.43 0.219,-0.425 0.207,-0.415C0.195,-0.406 0.189,-0.394 0.189,-0.379C0.189,-0.365 0.197,-0.353 0.211,-0.344C0.225,-0.335 0.248,-0.327 0.28,-0.321C0.311,-0.315 0.339,-0.308 0.362,-0.3C0.442,-0.273 0.481,-0.224 0.481,-0.153C0.481,-0.105 0.46,-0.066 0.417,-0.036C0.374,-0.005 0.319,0.01 0.251,0.01C0.206,0.01 0.165,0.002 0.13,-0.015C0.094,-0.031 0.067,-0.053 0.047,-0.081C0.027,-0.109 0.017,-0.139 0.017,-0.169L0.171,-0.169C0.172,-0.145 0.18,-0.127 0.195,-0.116C0.211,-0.105 0.231,-0.099 0.255,-0.099C0.278,-0.099 0.295,-0.104 0.306,-0.113C0.317,-0.122 0.323,-0.134 0.323,-0.148Z" style="fill-rule:nonzero;"/>
            </g>
            <g transform="matrix(64,0,0,64,334.938,200.836)">
                <path d="M0.148,-0.16C0.174,-0.16 0.196,-0.152 0.213,-0.136C0.23,-0.121 0.239,-0.101 0.239,-0.077C0.239,-0.053 0.23,-0.033 0.213,-0.018C0.196,-0.002 0.174,0.005 0.148,0.005C0.122,0.005 0.1,-0.002 0.083,-0.018C0.066,-0.034 0.057,-0.053 0.057,-0.077C0.057,-0.101 0.066,-0.121 0.083,-0.136C0.1,-0.152 0.122,-0.16 0.148,-0.16Z" style="fill-rule:nonzero;"/>
            </g>
            <g transform="matrix(64,0,0,64,354.281,200.836)">
                <path d="M0.495,-0.301L0.225,-0.301L0.225,-0.132L0.543,-0.132L0.543,-0L0.054,-0L0.054,-0.711L0.544,-0.711L0.544,-0.579L0.225,-0.579L0.225,-0.429L0.495,-0.429L0.495,-0.301Z" style="fill-rule:nonzero;"/>
            </g>
            <g transform="matrix(64,0,0,64,390.094,200.836)">
                <path d="M0.611,-0.711L0.611,-0.246C0.611,-0.193 0.6,-0.147 0.578,-0.109C0.555,-0.07 0.523,-0.041 0.481,-0.021C0.439,-0 0.389,0.01 0.332,0.01C0.245,0.01 0.177,-0.013 0.127,-0.058C0.078,-0.103 0.052,-0.164 0.051,-0.242L0.051,-0.711L0.224,-0.711L0.224,-0.239C0.226,-0.161 0.262,-0.122 0.332,-0.122C0.368,-0.122 0.394,-0.132 0.413,-0.151C0.431,-0.171 0.44,-0.203 0.44,-0.247L0.44,-0.711L0.611,-0.711Z" style="fill-rule:nonzero;"/>
            </g>
        </g>
    </g>
</svg>
