<?xml version="1.0" encoding="UTF-8" standalone="no"?>
<!DOCTYPE svg PUBLIC "-//W3C//DTD SVG 1.1//EN" "http://www.w3.org/Graphics/SVG/1.1/DTD/svg11.dtd">
<svg width="100%" height="100%" viewBox="0 0 512 512" version="1.1" xmlns="http://www.w3.org/2000/svg" xmlns:xlink="http://www.w3.org/1999/xlink" xml:space="preserve" xmlns:serif="http://www.serif.com/" style="fill-rule:evenodd;clip-rule:evenodd;stroke-linejoin:round;stroke-miterlimit:2;">
    <g transform="matrix(0.898438,0,0,0.898438,26,26)">
        <g>
            <circle cx="256" cy="256" r="256" style="fill:rgb(0,51,153);"/>
            <path d="M256,-21.33C102.937,-21.33 -21.33,102.937 -21.33,256C-21.33,409.063 102.937,533.33 256,533.33C409.063,533.33 533.33,409.063 533.33,256C533.33,102.937 409.063,-21.33 256,-21.33ZM256,0C397.29,0 512,114.71 512,256C512,397.29 397.29,512 256,512C114.71,512 0,397.29 0,256C0,114.71 114.71,0 256,0Z" style="fill:white;"/>
            <path d="M256.001,100.174L264.29,125.683L291.11,125.683L269.411,141.448L277.7,166.957L256.001,151.191L234.301,166.957L242.59,141.448L220.891,125.683L247.712,125.683L256.001,100.174Z" style="fill:rgb(255,218,68);fill-rule:nonzero;"/>
            <path d="M145.814,145.814L169.714,157.99L188.679,139.026L184.482,165.516L208.381,177.693L181.89,181.889L177.694,208.381L165.517,184.482L139.027,188.679L157.992,169.714L145.814,145.814Z" style="fill:rgb(255,218,68);fill-rule:nonzero;"/>
            <path d="M100.175,256L125.684,247.711L125.684,220.89L141.448,242.59L166.958,234.301L151.191,256L166.958,277.699L141.448,269.411L125.684,291.11L125.684,264.289L100.175,256Z" style="fill:rgb(255,218,68);fill-rule:nonzero;"/>
            <path d="M145.814,366.186L157.991,342.286L139.027,323.321L165.518,327.519L177.693,303.62L181.89,330.111L208.38,334.307L184.484,346.484L188.679,372.974L169.714,354.009L145.814,366.186Z" style="fill:rgb(255,218,68);fill-rule:nonzero;"/>
            <path d="M256.001,411.826L247.711,386.317L220.891,386.317L242.591,370.552L234.301,345.045L256.001,360.809L277.7,345.045L269.411,370.552L291.11,386.317L264.289,386.317L256.001,411.826Z" style="fill:rgb(255,218,68);fill-rule:nonzero;"/>
            <path d="M366.187,366.186L342.288,354.01L323.322,372.975L327.519,346.483L303.622,334.307L330.112,330.111L334.308,303.62L346.484,327.519L372.974,323.321L354.009,342.288L366.187,366.186Z" style="fill:rgb(255,218,68);fill-rule:nonzero;"/>
            <path d="M411.826,256L386.317,264.289L386.317,291.11L370.552,269.41L345.045,277.699L360.81,256L345.045,234.301L370.553,242.59L386.317,220.89L386.317,247.712L411.826,256Z" style="fill:rgb(255,218,68);fill-rule:nonzero;"/>
            <path d="M366.187,145.814L354.01,169.714L372.975,188.679L346.483,184.481L334.308,208.38L330.112,181.889L303.622,177.692L327.519,165.516L323.322,139.027L342.289,157.991L366.187,145.814Z" style="fill:rgb(255,218,68);fill-rule:nonzero;"/>
        </g>
    </g>
</svg>
