<?xml version="1.0" encoding="UTF-8" standalone="no"?>
<!DOCTYPE svg PUBLIC "-//W3C//DTD SVG 1.1//EN" "http://www.w3.org/Graphics/SVG/1.1/DTD/svg11.dtd">
<svg width="100%" height="100%" viewBox="0 0 512 512" version="1.1" xmlns="http://www.w3.org/2000/svg" xmlns:xlink="http://www.w3.org/1999/xlink" xml:space="preserve" xmlns:serif="http://www.serif.com/" style="fill-rule:evenodd;clip-rule:evenodd;stroke-linejoin:round;stroke-miterlimit:2;">
    <g transform="matrix(0.898438,0,0,0.898438,26,26)">
        <g>
            <circle cx="256" cy="256" r="256" style="fill:rgb(240,240,240);"/>
            <path d="M256,-22.261C102.424,-22.261 -22.261,102.424 -22.261,256C-22.261,409.576 102.424,534.261 256,534.261C409.576,534.261 534.261,409.576 534.261,256C534.261,102.424 409.576,-22.261 256,-22.261ZM256,0C397.29,0 512,114.71 512,256C512,397.29 397.29,512 256,512C114.71,512 0,397.29 0,256C0,114.71 114.71,0 256,0Z" style="fill:white;"/>
            <path d="M244.87,256L512,256C512,232.894 508.92,210.51 503.181,189.217L244.87,189.217L244.87,256Z" style="fill:rgb(216,0,39);fill-rule:nonzero;"/>
            <path d="M244.87,122.435L474.426,122.435C458.755,96.863 438.718,74.26 415.356,55.652L244.87,55.652L244.87,122.435Z" style="fill:rgb(216,0,39);fill-rule:nonzero;"/>
            <path d="M256,512C316.249,512 371.626,491.176 415.356,456.348L96.644,456.348C140.374,491.176 195.751,512 256,512Z" style="fill:rgb(216,0,39);fill-rule:nonzero;"/>
            <path d="M37.574,389.565L474.426,389.565C487.007,369.036 496.764,346.596 503.181,322.782L8.819,322.782C15.236,346.596 24.993,369.036 37.574,389.565Z" style="fill:rgb(216,0,39);fill-rule:nonzero;"/>
            <path d="M118.584,39.978L141.913,39.978L120.213,55.743L128.502,81.252L106.803,65.487L85.104,81.252L92.264,59.215C73.158,75.13 56.412,93.776 42.612,114.552L50.087,114.552L36.274,124.587C34.122,128.177 32.058,131.824 30.08,135.525L36.676,155.826L24.37,146.885C21.311,153.366 18.513,159.993 15.998,166.758L23.265,189.126L50.087,189.126L28.387,204.891L36.676,230.4L14.977,214.635L1.979,224.079C0.678,234.537 0,245.189 0,256L256,256L256,0C205.428,0 158.285,14.67 118.584,39.978ZM128.502,230.4L106.803,214.635L85.104,230.4L93.393,204.891L71.693,189.126L98.515,189.126L106.803,163.617L115.091,189.126L141.913,189.126L120.213,204.891L128.502,230.4ZM120.213,130.317L128.502,155.826L106.803,140.061L85.104,155.826L93.393,130.317L71.693,114.552L98.515,114.552L106.803,89.043L115.091,114.552L141.913,114.552L120.213,130.317ZM220.328,230.4L198.629,214.635L176.93,230.4L185.219,204.891L163.519,189.126L190.341,189.126L198.629,163.617L206.917,189.126L233.739,189.126L212.039,204.891L220.328,230.4ZM212.039,130.317L220.328,155.826L198.629,140.061L176.93,155.826L185.219,130.317L163.519,114.552L190.341,114.552L198.629,89.043L206.917,114.552L233.739,114.552L212.039,130.317ZM212.039,55.743L220.328,81.252L198.629,65.487L176.93,81.252L185.219,55.743L163.519,39.978L190.341,39.978L198.629,14.469L206.917,39.978L233.739,39.978L212.039,55.743Z" style="fill:rgb(0,82,180);fill-rule:nonzero;"/>
        </g>
    </g>
</svg>
